<?xml version="1.0" encoding="UTF-8"?><svg id="Layer_14" xmlns="http://www.w3.org/2000/svg" viewBox="0 0 280.93 128.39"><defs><style>.cls-1{stroke-width:0px;}</style></defs><path class="cls-1" d="m0,68.35l35.34,24.9s38.28-48.82,103.66-48.33c65.37.49,106.6,47.84,106.6,47.84l35.34-25.87-11.78-9.76-24.15,17.09s-34.75-36.61-96.59-41.5V0h-17.08l.59,31.73s-55.95.98-96.59,42.47l-23.56-17.09L0,68.35Z"/><path class="cls-1" d="m62.43,93.24l-11.78,10.74s35.93,24.41,85.4,24.41,92.47-25.87,92.47-25.87l-11.78-10.25s-38.28,24.41-80.69,23.92c-42.4-.49-73.62-22.94-73.62-22.94Z"/><polygon class="cls-1" points="136.05 66.88 135.46 101.54 149.01 101.05 145.47 65.42 136.05 66.88"/></svg>