<?xml version="1.0" encoding="UTF-8"?><svg id="Small-texture" xmlns="http://www.w3.org/2000/svg" xmlns:xlink="http://www.w3.org/1999/xlink" viewBox="0 0 582.69 871.22"><defs><style>.cls-1{mask:url(#mask);}.cls-2{filter:url(#luminosity-noclip);}.cls-3,.cls-4{stroke-width:0px;}.cls-4{fill:#242424;}</style><filter id="luminosity-noclip" x="-14.08" y="-16.39" width="615.73" height="898.78" color-interpolation-filters="sRGB" filterUnits="userSpaceOnUse"><feFlood flood-color="#fff" result="bg"/><feBlend in="SourceGraphic" in2="bg"/></filter><mask id="mask" x="-14.08" y="-16.39" width="615.73" height="898.78" maskUnits="userSpaceOnUse"><g class="cls-2"><path class="cls-3" d="m585.6-16.26c.27.32.03,1.02.03,2.13-4.05,4.46-8.4,9.28-12.79,14.06-1.3,1.42-3.44,1.38-4.78.04-1.38-1.38-1.87-3-1.15-4.73,1.23-2.92,4.49-3.77,6.81-5.6.58-.46.74-2.28.25-2.84"/><path class="cls-3" d="m172.91,617.2c-.25-.95-.57-1.91-.75-2.9-.41-2.17-.11-2.44,2.84-3.05,1.4-.29,2.77-.76,4.18-.91.33-.04.86.86,1.13,1.39.12.22-.08.76-.33.94-2.74,2.02-3.25,4.26-1.54,7.23.92,1.59-1.01,3.54-2.93,3.36-1.9-.18-3.63-.72-5.14-1.89-1.27-.98-1.22-2.39.34-3.28.63-.36,1.36-.57,2.2-.9Z"/><path class="cls-3" d="m572.73,455.76c-.18.62-.24,1.3-.57,1.84-2.83,4.59-7.86,7.57-10.58,12.26-.09.15-.73.2-.92.06-.5-.36-1.23-.82-1.27-1.28-.22-2.82.59-5.89,3.37-6.78,3.59-1.15,4.8-3.62,6.37-6.18.59-.96,1.74-.94,2.79-.57.31.11.54.43.81.65Z"/><path class="cls-3" d="m418.11,300.29c-.86-.32-1.92-.55-2.74-1.09-.46-.3-.58-1.1-.74-1.7-.08-.29-.03-.83.17-.94,2.96-1.62,1.3-5,3.16-7.03.56-.61,1.87-.95,2.81-.34.49.32,1.09,1.04,1.02,1.48-.51,2.87-1.14,5.72-1.89,8.54-.11.42-1.05.66-1.78,1.08Z"/><path class="cls-3" d="m88.97,706.23c-.08.74.05-.55.25-1.83,0-.05.83-.15,1.05.01,2.18,1.68,1.34,4.53,2.81,6.45,1.28,1.67,3.23,2.96,3.26,5.24,0,.54-.55,1.15-.98,1.62-.15.16-.73.06-1.08-.04-.33-.09-.65-.3-.91-.52q-3.73-3.09-4.41-10.93Z"/><path class="cls-3" d="m83.52,657.05c.13-.67.2-1.35.4-2,.09-.28.4-.7.63-.72.68-.06,1.74-.18,2.02.16,1.54,1.88,2.88,3.67,5.93,3.77,1.75.06,1.94,1.87.66,4.23-.65,1.21-1.75,1.68-2.43.86-1.19-1.45-2.59-2.26-4.51-2.69-2.45-.54-2.7-1.17-2.7-3.6Z"/><path class="cls-3" d="m212.29,413.73c-2.91.07-4.89-1.61-4.79-4.24.02-.58.49-1.3.98-1.7,1.49-1.21,3.28-1.31,5.15-.87,1.92.46,2.93,2.06,2.4,3.86-.64,2.2-1.52,2.89-3.74,2.94Z"/><path class="cls-3" d="m342.16,244.64c-.58-1.12-1.95-2.55-1.91-3.95.11-3.59,2.22-6.52,5.58-8.21,1.32-.65,3.53-.45,5.05.07,2.02.69,3.06,4.52,1.63,5.89-2.49,2.4-5.31,4.52-8.07,6.67-.28.21-1.13-.21-2.29-.47Z"/><path class="cls-3" d="m379.18,364.13c-.11.3-.14.66-.35.88-1.84,1.92-3.66,3.86-5.62,5.67-.31.29-1.31.15-1.89-.04-.79-.26-1.12-1.04-.64-1.64,1.85-2.32,3.77-4.59,5.78-6.79.22-.24,1.38-.05,1.82.28.47.35.61,1.08.9,1.65Z"/><path class="cls-3" d="m344.92,202.55c.05-.57-.07-1.19.16-1.69,1.99-4.35,5.34-7.51,10.16-9.06.83-.26,2.46.57,3.18,1.34.66.69,1.18,2.4.74,2.93-3.04,3.59-6.27,7.05-9.66,10.36-.37.36-2.4-.21-3.14-.85-.8-.7-.99-1.99-1.44-3.03Z"/><path class="cls-3" d="m191.36,636.99c-2.26,1.78-3.32,4.28-4.78,6.56-.21.33-1.39.28-2.09.17-1.13-.17-1.58-1.34-1.12-2.32,1.24-2.63,3.03-4.68,6.18-5.38.31-.07.73.06,1.02.22.31.17.52.48.77.74Z"/><path class="cls-3" d="m538.65,331.98c1.76-.27,3.39,1.61,2.25,3.04-1.2,1.5-2,2.62-.72,4.28,1.05,1.36,2.4,2.61,3.08,4.12.28.61-.61,2.08-1.4,2.61-.88.59-2.28.86-3.4.75-3.61-.36-7.18-4.65-7.27-8.49-.05-2.46,3.83-5.75,7.45-6.3Z"/><path class="cls-3" d="m524.74,96.28c-3.74,1.49-7.55,3.01-11.26,4.49-3.18-2.99-2.17-6.35-1.64-9.52.13-.8,1.52-2.01,2.32-2.01,3.65,0,7.22.71,9.65,3.55.65.76.58,2.07.92,3.49Z"/><path class="cls-3" d="m24.62,372.72c-.32.27-.75.35-1.14.22-1.02-.32-2.05-.53-2.39-1.09-.87-1.43-1.24-3.13-1.73-4.74-.06-.18.32-.62.59-.73.62-.25,1.57-.72,1.92-.49,1.08.7,2.11,1.47,3.08,2.31,1.36,1.18,1.31,3.14-.07,4.3-.08.07-.17.14-.25.21Z"/><path class="cls-3" d="m531.16,47.94c1.45,3.14.85,5.7-2.19,7.59-.44.28-1.41.22-1.88-.06-.49-.29-1.05-1.16-.91-1.57.86-2.47,2.15-4.7,4.98-5.97Z"/><path class="cls-3" d="m84.2,726.88c.63,4.28-1.19,7.93-3.43,11.47-.11.18-.73.18-1.06.09-.32-.08-.62-.35-.84-.6-.21-.24-.46-.6-.43-.87.44-3.39.85-6.83,4.02-9.18.52-.39,1.3-.48,1.96-.7l-.22-.2Z"/><path class="cls-3" d="m383.35,343.43c-.62.37-1.55,1.38-2.24,1.25-2.02-.38-3.95-1.17-5.86-1.92-.17-.07-.08-1.14.18-1.6.3-.52.9-1.2,1.43-1.24,2.55-.18,4.87.49,6.68,2.25.15.15-.08.62-.19,1.26Z"/><path class="cls-3" d="m116.98,232.62c1.35,1.09,2.76,2.16,4.08,3.31,1.4,1.23.96,3.51-.87,4.03-1.36.39-2.86.42-4.3.46-.91.03-1.87-1.39-1.54-2.23.72-1.87.68-4.05,2.64-5.57Z"/><path class="cls-3" d="m139.18,277.43c-.34-.11-.81-.12-.98-.34-1.09-1.38-2.22-2.75-3.11-4.24-.24-.4.14-1.4.58-1.79.44-.4,1.37-.63,1.98-.5,2.8.58,4,2.77,3.17,5.61-.09.32-.32.66-.59.87-.28.21-.69.26-1.04.38Z"/><path class="cls-3" d="m541,257.79c.4,1.95-.88,2.95-1.62,2.29-1.51-1.33-3.15-1.03-4.86-.94-.33.02-.96-.17-.96-.27-.02-.61-.12-1.36.22-1.8.81-1.05,1.82-1.97,2.81-2.89.98-.91,2.73-.48,3.35.85.55,1.19.95,2.44,1.07,2.75Z"/><path class="cls-3" d="m547.07,263.24c.08-.29.07-.74.26-.84,1.48-.76,2.97-1.54,4.55-2.1.39-.14,1.34.37,1.6.81.28.46.28,1.32-.03,1.76-.74,1.06-1.69,2-2.62,2.93-.95.96-2.73.59-3.34-.71-.27-.57-.29-1.23-.42-1.85Z"/><path class="cls-3" d="m150.3,389.9c-.52-3.45,1.61-6.35,2.38-9.53.06-.24,1.5-.55,1.81-.3.74.61,1.65,1.51,1.68,2.32.09,2.41-.89,4.63-2.2,6.71l.22-.2c-1.37.24-2.74.48-4.11.71l.22.29Z"/><path class="cls-3" d="m7.94,526.12c-2.55-.23-4.43-.31-6.25-.63-.38-.07-.91-1.11-.77-1.55.17-.56,1.06-1.43,1.44-1.35,2.56.54,5.02.38,7.53-.21.4-.1,1.2.73,1.61,1.27.72.95.09,2.46-.94,2.46-1.1,0-2.2,0-2.61,0Z"/><path class="cls-3" d="m63.08,134.85c-.07,1.02.01,2.08-.28,3.04-.12.39-1.05.64-1.65.78-.25.06-.87-.3-.89-.5-.3-2.62.31-5.31-.61-7.91-.02-.06,1.05-.53,1.65-.65.29-.06.78.14,1,.37,1.42,1.46.77,3.2.8,4.87Z"/><path class="cls-3" d="m226.77,471.41c-.4.44-.9,1.32-1.2,1.26-2.16-.39-4.18-1.18-5.25-3.1-.21-.38.16-1.48.56-1.66,3.2-1.41,5.7.12,5.89,3.5Z"/><path class="cls-3" d="m486.45,344.82c-.82.07-1.71-1.21-1.54-2,.43-1.98,1.93-3.29,3.36-4.61.27-.26,1.18,0,1.76.15.24.06.52.49.51.74-.05,1.94-.49,3.78-2.24,5.05-.5.36-1.22.46-1.85.67Z"/><path class="cls-3" d="m87.02,112.79c-.1.31-.11.69-.32.92-.79.89-2.93,1.18-4.08.6-1.31-.66-2.08-2.19-1.55-3.45.24-.56.81-1.22,1.38-1.38,1.97-.56,4.48,1.35,4.55,3.32Z"/><path class="cls-3" d="m554.8,21c-.76,2.27-1.52,5.03-2.68,7.63-.25.55-2.26,1.01-3.03.68-4.14-1.8-5.26-5.15-2.95-8.1,1.08-1.37,2.42-2.59,3.29-4.06.76-1.27,1.63-1.88,2.92-.97.87.62,1.39,1.71,1.94,2.66.28.48.27,1.1.5,2.16Z"/><path class="cls-3" d="m468.77,491.63c-2.63-1.32-5.28-2.49-7.72-3.98-.51-.32-.62-2.03-.18-2.65.55-.79,1.85-1.59,2.83-1.58,4.26.04,6.32,3.39,5.07,8.21Z"/><path class="cls-3" d="m21.98,577.8c.26,2.68.57,5.36.7,8.04.02.37-.78.84-1.28,1.12-.17.1-.87-.2-.92-.41-.58-2.28-1.1-4.57-1.57-6.87-.18-.88,1.1-1.66,3.07-1.89Z"/><path class="cls-3" d="m97.16,226.03c.75,1.59,1.51,3.11,2.17,4.66.41.96-.17,2.41-1.02,2.51-.68.08-1.48-.05-2.11-.31-1.04-.44-1.97-1.45-1.46-2.34.81-1.42.23-3.46,2.41-4.52Z"/><path class="cls-3" d="m55.24,293.07c-.49.43-1.14,1.3-1.45,1.21-1.33-.39-2.57-1.04-3.81-1.66-.27-.14-.55-.8-.49-.85.49-.38,1.13-1,1.59-.92,1.39.25,2.73.75,4.05,1.24.15.06.07.64.1.98Z"/><path class="cls-3" d="m25.25,287.73c.43-.13,1.18.43,1.66.8.2.16.1.65.14,1"/><path class="cls-3" d="m455.33,77.83c-.26-1.2-.62-2.46-.79-3.73-.13-.98.83-2.22,1.63-2.14.67.06,1.59.32,1.87.77.49.78.99,1.9.74,2.67-.41,1.25-1.53,2.21-3.45,2.44Z"/><path class="cls-3" d="m548.25,766.42c-.4-.29-1.02-.51-1.16-.88-1.2-3.19.15-5.75,3.6-6.34.96-.16,2.16.7,3.17,1.23.12.06-.2,1.1-.51,1.55-2.52,3.68-3.16,4.21-5.09,4.44Z"/><path class="cls-3" d="m141.5,409.31c.49.23.59,1.17.85,1.8"/><path class="cls-3" d="m550.38,139.01c.68.79,1.5,1.45,1.89,2.27,1,2.07.2,3.55-2.31,4.61-.3.13-.84.21-1.02.05-.4-.34-1.02-.95-.91-1.26.65-1.85,1.49-3.64,2.35-5.67Z"/><path class="cls-3" d="m253.58,703.14c-.07.32-.05.83-.24.92-.6.28-1.37.67-1.93.52-1.48-.38-2.58-1.34-3.01-2.76-.22-.72.27-1.33,1.17-1.37,2.37-.11,3.68.82,4.01,2.69Z"/><path class="cls-3" d="m426.7,251.98c.05-.53-.12-1.28.18-1.53,1.73-1.42,3.47-2.91,5.45-3.96.66-.35,2.64.24,2.98.88.36.68-.16,2.4-.89,2.83-1.94,1.17-4.17,1.95-6.34,2.74-.28.11-.92-.62-1.4-.96Z"/><path class="cls-3" d="m507.22,105.09c.37,2.98.82,5.77.93,8.56.01.33-2.15,1.26-2.89.98-2.96-1.11-4.04-2.9-3.72-5.24.26-1.91.67-2.24,5.68-4.31Z"/><path class="cls-3" d="m82.37,563.58c-.62-.79-1.04-1.77-1.28-2.73-.06-.22.95-.68,1.69-1.17"/><path class="cls-3" d="m585.32,617.6c.23.24.65.47.66.72.07,1.25.14,2.51.02,3.76-.09.94-1.5,1.11-2.46.36-1.77-1.4-1.5-3.15.77-4.68.25-.17.67-.11,1-.16Z"/><path class="cls-3" d="m164.93,635.47c.26.57.92,1.41.71,1.66-.81.98-1.86,1.8-2.89,2.62-.18.14-.69.03-.99-.09-.81-.31-1.01-.89-.71-1.65.5-1.3,1.38-2.24,2.87-2.58.31-.07.67.03,1.01.05Z"/><path class="cls-3" d="m110.83,331.39c-.34-.15-.96-.3-.96-.46-.02-.59-.06-1.39.32-1.73.78-.71,1.78-1.26,2.77-1.74.92-.44,1.99.16,2.56,1.29.52,1.05-.06,2.16-1.34,2.35-1.1.16-2.23.2-3.35.29Z"/><path class="cls-3" d="m1.7,589.24c.48.42.97.87,1.47,1.32-.7.1-1.45.38-2.11.26-1.07-.21-2.16-.55-3.07-1.09-.33-.2-.22-1.12-.19-1.71,0-.1.69-.33.93-.23,1.01.42,1.96.95,2.97,1.45Z"/><path class="cls-3" d="m580.57,374.76c-.6-.63-1.36-1.08-1.33-1.47.12-1.79,1.29-2.95,3.07-3.58.79-.28,2.17.51,2.29,1.46.07.54-.16,1.34-.57,1.64-1.07.77-2.32,1.33-3.46,1.95Z"/><path class="cls-3" d="m582.85,480.63c-.36.43-.66,1.14-1.1,1.22-.5.09-1.41-.25-1.61-.64-.41-.78-.57-1.71-.58-2.59,0-.3.92-.93,1.17-.84,1.33.48,1.95,1.54,2.12,2.84Z"/><path class="cls-3" d="m345.53,479.2c.76.61,1.35,1.41,1.88,1.99"/><path class="cls-3" d="m358.46,369.28c-.26,1.41-1.18,2.28-2.64,2.46-.55.07-1.41-.23-1.69-.62-.28-.39-.25-1.31.07-1.66.64-.68,1.5-1.27,2.4-1.6.44-.16,1.19.28,1.73.57.17.09.09.57.13.86Z"/><path class="cls-3" d="m370.55,293.08c-.47-.36-1.24-.67-1.34-1.1-.11-.5.2-1.43.62-1.62.83-.38,1.87-.5,2.8-.46.34.01.97.84.9,1.21-.24,1.33-1.47,2.04-2.99,1.97Z"/><path class="cls-3" d="m134.34,262.41s0,0,0,0c3.9-1.15,4.26-1.07,5.53,1,.18.28.34.84.19.98-.48.43-1.12,1.03-1.66,1-1.74-.1-1.74-.19-4.07-2.98Z"/><path class="cls-3" d="m446.92,337.92c.33.36.41,1.13.24,1.6"/><path class="cls-3" d="m466.25,321.48c-1,.22-2.14-.63-2.13-1.6.01-1.03.35-1.97,1.43-2.36.52-.18,1.45-.16,1.78.15,1.35,1.24.67,3.43-1.08,3.8Z"/><path class="cls-3" d="m570.3,447.12c-.49.29-1.23,1.05-2.06,1.14-1.31.15-2.95-1.82-2.24-2.51.6-.6,1.74-.92,2.68-.99,1.19-.09,1.94.92,1.63,2.36Z"/><path class="cls-3" d="m50.85,123.17c-.29.41-.42.7-.65.89-.68.58-2.22.27-2.86-.54-1.05-1.32-.97-2.93.22-3.59.29-.16.95-.25,1.05-.12.82,1.11,1.54,2.28,2.24,3.36Z"/><path class="cls-3" d="m126.31,562.26c-.71.5-1.41,1.21-2.28,1.52-.47.17-1.32-.23-1.84-.58-.73-.5-.55-2.08.4-2.52.84-.38,1.94-.47,2.87-.36.32.04.5,1.08.85,1.95Z"/><path class="cls-3" d="m35.24,284.45c.3,1.32-1.15,2.9-2.47,2.68-.85-.14-1.44-1.32-1.23-2.43.23-1.19,1.39-2.09,2.26-1.59.56.32.96.88,1.43,1.33Z"/><path class="cls-3" d="m357.46,410.37c-.45.97-.67,2.14-1.42,2.85-.83.79-3.29-.48-3.89-2.15-.34-.94-.43-2.28.07-3.05.48-.74,1.83-1.07,2.87-1.38.32-.09,1.09.36,1.27.73.47.95.74,1.99,1.09,3Z"/><path class="cls-3" d="m79.17,446.63c-.34.84-.56,1.82-1.14,2.58-.23.3-1.4.33-1.84.06-.44-.27-.88-1.24-.68-1.6.47-.82,1.28-1.51,2.07-2.11.11-.08.9.6,1.59,1.07Z"/><path class="cls-3" d="m41.67,507.05c-.44-.43-1.26-.89-1.23-1.28.05-.6.58-1.27,1.11-1.7.98-.79,2.35-.73,2.92.01.2.26.33.62.35.94.08,1.18-.58,1.83-2.03,2.02-.36.05-.74,0-1.11,0Z"/><path class="cls-3" d="m527.01,443.72c-.32-1.86.3-3.58,2.36-3.7,2.34-.12,4.77.4,7.05.99.44.11.88,2.09.48,2.8-1.44,2.49-3.51,3.39-5.86,2.46"/><path class="cls-3" d="m518.84,78.08c-.79,1.22-1.62,2.66-2.63,3.97-.28.37-1.27.68-1.65.5-.92-.44-2.24-1.1-2.35-1.82-.28-1.65-.05-3.4.2-5.08.25-1.66,2.67-2.14,4.27-.76.84.73,1.29,1.85,2.17,3.18Z"/><path class="cls-3" d="m363.18,87.52c-.83.94-1.4,2.15-2.19,2.29-.85.16-2.48-.49-2.77-1.16-.63-1.46-.72-3.15-.85-4.77-.04-.47.54-1.41.77-1.39.97.08,2.32.16,2.78.74,1.01,1.29,1.57,2.89,2.26,4.28Z"/><path class="cls-3" d="m344.23,148.76c-1.25.15-3.12.91-4.32.37-1.75-.78-1.99-2.85-1.25-4.51.33-.74,1.73-1.68,2.45-1.55,2.63.45,4.26,3.21,3.11,5.69Z"/><path class="cls-3" d="m197.67,533.72c-.39.57-.56,1.06-.78,1.08-.59.06-1.4.12-1.78-.18-.82-.66-1.3-1.59-.96-2.69.28-.91,1.96-1.41,2.51-.64.55.76.74,1.74,1.01,2.43Z"/><path class="cls-3" d="m62.14,192.91c-1-.09-2.39-.16-2.26-1.27.09-.76,1.18-1.79,2.04-2.02,1.06-.29,1.81.7,2.21,1.68.37.9-.51,1.62-1.98,1.61Z"/><path class="cls-3" d="m386.51,10.04c-.05,1.06-1.02,1.96-1.85,1.7-1.02-.31-1.74-1.3-1.53-2.09.21-.81,1.75-1.67,2.4-1.2.48.35.67,1.04.98,1.59Z"/><path class="cls-3" d="m535.41,274.65c-1.65.37-3.28.85-4.95,1.07-.56.07-1.43-.37-1.77-.83-.28-.38-.07-1.14.08-1.69.07-.24.63-.59.83-.52,1.94.63,3.85,1.33,5.78,2.01l.03-.03Z"/><path class="cls-3" d="m368.54,244.34c.76.54,1.49.8,1.69,1.25.43.98-1.39,2.75-2.41,2.31-.48-.2-1.02-1.16-.87-1.57.27-.75,1.03-1.34,1.59-2Z"/><path class="cls-3" d="m199.47,420.5c-.2,1.6-1.12,2.26-2.1,1.87-.96-.38-1.96-.77-1.73-2.03.19-1.04,1.24-1.83,2.2-1.41.75.33,1.24,1.17,1.64,1.57Z"/><path class="cls-3" d="m204.11,438.69c.51-.69,1.02-1.48,1.64-2.18.19-.22.95-.35,1-.27.33.51.91,1.36.72,1.59-.64.73-1.56,1.26-2.42,1.81-.04.03-.47-.47-.94-.95Z"/><path class="cls-3" d="m560.89,436.11c.27,1.79-.83,3.39-2.5,3.63-1.76.25-3.47-1.31-3.11-3.17.17-.93.94-1.98,1.78-2.53,1.42-.92,3.57.35,3.83,2.06Z"/><path class="cls-3" d="m-.09,699.75c.79-.53,1.28-1.12,1.87-1.21,1.61-.24,2.34.98,1.77,2.79-.28.89-.99,1.21-1.73.62-.75-.6-1.27-1.45-1.91-2.2Z"/><path class="cls-3" d="m31.82,778.6c.09.64.38,1.31.25,1.9-.42,1.97-1.2,2.78-2.56,2.6-.52-.06-1.28-.65-1.38-1.09-.33-1.5.72-2.49,1.97-3.17.49-.27,1.29-.05,1.95-.06l-.24-.19Z"/><path class="cls-3" d="m32.06,778.79c-.58-1.82.18-3.16,1.78-4.17.23-.14.66-.14.92-.04.19.07.42.53.34.63-.92,1.26-.99,3.27-3.27,3.39l.24.19Z"/><path class="cls-3" d="m566.6,241.05c-.02-1.2.67-1.88,2.06-1.79,1.37.09,2.01.89,1.66,2.1-.13.43-.88,1.12-1.09,1.05-.93-.32-1.76-.88-2.63-1.35Z"/><path class="cls-3" d="m4.17,545.73c-.5.8-.83,1.38-1.25,1.91-.05.06-.76-.18-.94-.42-.61-.83-1.15-1.71-1.64-2.6-.13-.23-.05-.83.03-.84.67-.14,1.61-.48,2.01-.19.78.55,1.25,1.47,1.79,2.15Z"/><path class="cls-3" d="m439.52,138.3c-.25,1.44-.33,2.58-.71,3.62-.11.3-1.26.6-1.66.41-2.17-1.05-1.05-2.74-.77-4.25.1-.55.18-1.13.41-1.64.21-.46.54-1,.98-1.2,1.02-.46,1.66.2,1.74,1.72.03.56,0,1.12,0,1.34Z"/><path class="cls-3" d="m31.8,291.07c.73.58,1.51,1.16,2.2,1.81.18.17.2.79.07.86-.56.32-1.47.86-1.75.68-.8-.54-1.4-1.37-1.96-2.16-.04-.06.8-.67,1.43-1.19Z"/><path class="cls-3" d="m96.23,558.81c1.23-.71,2-1.41,2.88-1.59,1.12-.22,2.33.89,2.19,1.67-.18.99-1.4,2.24-2.21,1.96-.91-.32-1.62-1.12-2.85-2.04Z"/><path class="cls-3" d="m39.83,307.49c-.72.67-1.91.02-1.91-.96v-.94c.59,0,1.44-.21,1.72.07.37.37.57,1.27.32,1.67-.03.06-.08.11-.13.15Z"/><path class="cls-3" d="m458.85,399.47c-.35.45-.6,1.15-1.06,1.31-1.24.42-2.81-1.14-2.23-2.21.23-.44.98-.83,1.53-.89,1.09-.11,1.78.69,1.76,1.79Z"/><path class="cls-3" d="m568.58,398.87c-.11.6-.07.95-.23,1.18-.48.68-1.2.82-1.81.26-.69-.64-1.25-1.4-1.78-2.16-.12-.17.05-.62.22-.86.48-.67,1.19-.82,1.83-.29.71.6,1.28,1.34,1.77,1.87Z"/><path class="cls-3" d="m571.89,395.02c-.26-.53-.76-1.08-.72-1.58.1-1.16,1.4-1.64,2.12-.83.36.41.63,1.31.39,1.66-.29.43-1.17.52-1.8.76Z"/><path class="cls-3" d="m391.83,452.76c-.85-.26-1.39-1.54-.86-2.28.55-.78,1.37-1.56,2.39-1.21"/><path class="cls-3" d="m371.75,332.6c1.3-.33,2.29-.9,2.97-.67.93.32,1.14,1.38.76,2.33-.3.74-.99,1.04-1.64.56-.7-.5-1.19-1.25-2.08-2.22Z"/><path class="cls-3" d="m106.7,227.11s0,0,0,0c-1.06,1.02-1.66,1.8-2.46,2.32-.69.45-1.46.11-1.77-.69-.4-.99.11-2.58.91-2.59.93,0,1.87.51,3.32.95Z"/><path class="cls-3" d="m563.22,39.99c-1.05.24-2.31.9-3.09.58-.72-.3-1.43-1.75-1.25-2.52.3-1.27,1.72-1.6,2.79-.7.75.64,1.05,1.74,1.55,2.64Z"/><path class="cls-3" d="m380.64,427.38c1.45.88,2.71,1.23,3.15,1.99,1.05,1.83.41,3.41-1.37,3.51-.9.06-2.58-.79-2.65-1.36-.15-1.27.49-2.61.86-4.15Z"/><path class="cls-3" d="m50.25,284.04c-.84.4-1.56.96-1.79.82-.93-.57-1.37-1.51-.72-2.48.25-.37.95-.48,1.45-.71.36.8.71,1.6,1.06,2.37Z"/><path class="cls-3" d="m516.92,401.85c-.34.5-.55,1.19-1.04,1.46-.83.46-2.16-.32-2.24-1.15-.09-.82,1.12-1.78,2.09-1.49.48.14.8.77,1.19,1.18Z"/><path class="cls-3" d="m367.34,360.32c-.61.2-1.25.62-1.8.53-.8-.13-.93-.8-.61-1.52.33-.75.93-1.08,1.59-.58.44.33.56,1.04.82,1.57Z"/><path class="cls-3" d="m582.03,372.78c-.43-.18-1.22-.36-1.22-.55-.05-1.49,0-3,.18-4.49.03-.23.88-.58,1.29-.52,1.34.18,1.78,2.18.92,4.36-.19.47-.77.8-1.17,1.2Z"/><path class="cls-3" d="m96.99,247.21s0,0,0,0c-.28.54-.41,1.28-.88,1.57-1.11.7-2.5.17-2.27-.78.13-.54.72-1.25,1.24-1.37.55-.13,1.26.36,1.91.57Z"/><path class="cls-3" d="m49.15,362.11c.67.24,1.74.32,1.93.75.46,1.04-.34,1.8-1.33,2.31-.89.46-1.49.23-1.72-.69-.34-1.32.04-2.09,1.11-2.36Z"/><path class="cls-3" d="m146.93,411.63c.29-.43,1.08-.6,1.68-.79.06-.02.34.51.52.78"/><path class="cls-3" d="m494.92,625.24c-1.11.11-2.19.31-3.24.26-.33-.02-.62-.75-.92-1.16.85-.42,1.66-.97,2.56-1.2.44-.12,1.25.23,1.55.6.26.33.05,1,.05,1.51Z"/><path class="cls-3" d="m556.17,632.45c.05.48-.03,1.02-.26,1.44-.19.36-.68.58-1.04.85-.48-.68-1.48-1.52-1.31-1.99.25-.7,1.35-1.15,2.08-1.69.18.46.47.92.52,1.39Z"/><path class="cls-3" d="m477.84,3.57c2.04-.8,3.4.23,4.08,1.74.24.52-.86,2.26-1.44,2.29-2.15.15-2.93-1.43-2.4-4.33l-.24.3Z"/><path class="cls-3" d="m446.77,460.65c.5.13,1.1.63,1.24,1.07"/><path class="cls-3" d="m526.66,460.59c.32.53.88,1.06.87,1.59-.02.52-.61,1.02-.95,1.53-.33-.54-.93-1.08-.92-1.61,0-.5.64-1,1-1.5Z"/><path class="cls-3" d="m126.54,706.64c-.46-.3-.96-.57-1.36-.94-.08-.08.27-.77.37-.75.58.06,1.17.19,1.69.44.19.09.3.64.18.85-.13.22-.58.28-.89.41Z"/><path class="cls-3" d="m94.69,621.74c.07.82-.34,1.3-1.22,1.26-.93-.05-1.34-.58-1.08-1.37.1-.3.39-.66.69-.78.86-.33,1.42.01,1.6.89Z"/><path class="cls-3" d="m521.54,290.51c-1.79-.49-2.44-1.92-1.62-3.75.59-1.34,1.6-1.58,2.96-.86,2.01,1.06,2.99,2.71,1.88,3.61-.78.64-2.13.69-3.22,1Z"/><path class="cls-3" d="m541.02,116.46c0-.28-.12-.64.02-.82.55-.71.99-.61,1.07.25.02.26-.13.61-.34.77-.12.09-.51-.13-.75-.2Z"/><path class="cls-3" d="m462.79,85.03c-.22-.24-.55-.45-.65-.72-.26-.73.05-1.39.86-1.5.57-.07,1.22.25,1.8.47.06.02-.01.73-.22.87-.54.36-1.18.59-1.79.87Z"/><path class="cls-3" d="m367.68,286.89c-.29-.51-.8-1.01-.8-1.52,0-1.14,1.19-1.81,2.03-1.26.66.44.83,1.09.3,1.71-.38.45-1.01.71-1.53,1.06Z"/><path class="cls-3" d="m190.36,612.05c-.43.73-1.13.98-1.78.44-.46-.38-.64-1.05-.94-1.6.66-.14,1.35-.45,1.98-.37.91.11,1.13.75.74,1.53Z"/><path class="cls-3" d="m91.04,572.43c.45.15.64.99.94,1.52-.49.4-.93,1.03-1.49,1.14"/><path class="cls-3" d="m463.78,49.6c.15.23.47.62.41.67-.4.38-.88.7-1.33,1.03-.14-.24-.45-.64-.39-.7.39-.37.86-.67,1.3-1Z"/><path class="cls-3" d="m99.25,642.29c-.36.45-.72.91-1.08,1.36-.33-.48-.94-.97-.92-1.45.01-.47.64-.93,1.01-1.39.33.49.67.99,1,1.48Z"/><path class="cls-3" d="m506.26,313.56c.2.46.61.94.56,1.38-.05.41-.56.79-.86,1.18-.21-.45-.61-.92-.56-1.34.05-.43.56-.81.87-1.22Z"/><path class="cls-3" d="m5.02,606.01c.22.08.61.14.62.24.03.25-.11.51-.18.77-.24-.07-.49-.14-.73-.21.1-.27.19-.54.29-.8Z"/><path class="cls-3" d="m511.61,269.99c-.59.8-1.17,1.59-1.76,2.39-.48-.85-1.38-1.74-1.32-2.56.06-.85,1.06-1.65,1.64-2.48.48.88.96,1.76,1.44,2.65Z"/><path class="cls-3" d="m25.16,558.99c.22-.13.44-.26.67-.39"/><path class="cls-3" d="m19.17,555.23c-.22-.28-.68-.66-.61-.82.35-.76,1.06-.99,1.87-.63.3.14.49.51.72.77-.66.23-1.32.46-1.98.69Z"/><path class="cls-3" d="m226.57,718.19c-.23.2-.47.39-.7.59-.23-.5-.52-.99-.64-1.5-.04-.15.4-.4.63-.6.24.51.47,1.01.71,1.52Z"/><path class="cls-3" d="m266.35,699.9c-.33.1-.7.34-.98.27-1.1-.25-1.21-.74-.29-1.18.25-.12.74.03,1.03.19.18.1.17.47.24.72Z"/><path class="cls-3" d="m67.63,686.88c-.28.19-.56.38-.84.57-.21-.55-.49-1.09-.58-1.66-.03-.16.49-.4.75-.61.23.57.45,1.14.67,1.7Z"/><path class="cls-3" d="m494.49,415.3c-.53-.19-1.34-.23-1.55-.59-.63-1.04.03-1.77,1.65-1.74.36,0,.99.77.97,1.15-.02.41-.68.78-1.06,1.17Z"/><path class="cls-3" d="m386.02,416.31c-.4.12-.79.24-1.19.36-.14-.47-.56-1.19-.37-1.36.97-.91,1.56-.52,1.56,1Z"/><path class="cls-3" d="m472.36,87.7c.45.39,1.32.95,1.24,1.13-.43.93-1.39,2.58-1.64,2.5-1.35-.41-1.72-1.57-1.04-2.76.24-.42.98-.6,1.44-.86Z"/><path class="cls-3" d="m1.47,474.52c-.16.28-.28.75-.5.8-.75.16-1.13-.32-.91-1.19.05-.18.62-.4.87-.34.24.06.37.47.55.73Z"/><path class="cls-3" d="m433.76,52.01c-1.17-.53-2.52-1.14-3.86-1.75.4-.39.74-.98,1.23-1.13,2.08-.67,4.38.11,4.23,1.26-.05.43-.75.79-1.6,1.62Z"/><path class="cls-3" d="m83.2,442.35c.09.27.34.6.26.81-.39.9-.96.96-1.42.16-.12-.21.04-.68.25-.87.17-.16.6-.08.91-.1Z"/><path class="cls-3" d="m510.33,8.98c-1.07.41-2.07,1.08-3.04,1.05-.56-.02-1.09-1.16-1.63-1.79.97-.37,1.96-1.04,2.91-1,.61.02,1.16,1.11,1.76,1.74Z"/><path class="cls-3" d="m478.09,3.27c-1.04.25-2.18.85-3.08.63-.83-.2-1.47-1.26-2.03-2.04-.09-.12.62-1.06,1.05-1.13.98-.16,2.36-.37,2.95.1.65.53.6,1.8.86,2.74l.24-.3Z"/><path class="cls-3" d="m556.86,184.35c-.06.94-.43,1.88-.78,2.78-.04.1-1.12.04-1.14-.07-.24-.94-.48-1.91-.42-2.86.02-.38.84-1,1.25-.98.41.02,1.12.74,1.09,1.13Z"/><path class="cls-3" d="m502.49,141.49c.38.4,1.14.89,1.06,1.17-.27.93-.84,1.79-1.3,2.67-.39-.38-1.19-.87-1.11-1.13.29-.95.87-1.82,1.35-2.71Z"/><polygon class="cls-3" points="468.79 527.86 469.08 529.19 467.99 528.9 468.79 527.86"/><path class="cls-3" d="m537.29,758.2c-.18.52-.18,1.29-.56,1.5-1.08.6-1.77-.07-1.57-1.64.06-.45.74-.83,1.13-1.25.33.46.67.92,1,1.39Z"/><path class="cls-3" d="m165.4,859.61c.3-.15.61-.42.91-.41.27,0,.74.31.75.5.04.93-.5,1.18-1.38.66-.19-.11-.19-.49-.27-.75Z"/><path class="cls-3" d="m484.54,453.8c-.2.25-.48.74-.58.71-.59-.19-1.13-.5-1.68-.77.57-.24,1.13-.52,1.73-.69.09-.02.35.48.53.74Z"/><path class="cls-3" d="m510.32,421.88c-.41.69-1.03.91-1.78.53-.28-.14-.45-.48-.67-.72.62-.2,1.23-.46,1.87-.56.14-.02.39.49.58.75Z"/><path class="cls-3" d="m491.67,413.92c-.53.27-1.05.57-1.61.77-.08.03-.56-.48-.53-.69.12-.77.7-1.05,1.47-.73.27.11.44.43.66.66Z"/><path class="cls-3" d="m367.91,381.96c-.67.12-1.35.23-2.02.34.47-1.52,1.2-.01,1.79-.14l.23-.21Z"/><path class="cls-3" d="m469.63,377.87c-.27.06-.67.24-.77.14-.21-.2-.37-.56-.33-.83.04-.26.34-.5.53-.74.24.17.62.3.69.51.09.27-.07.61-.12.91Z"/><path class="cls-3" d="m578.86,488.6c-.11.26-.16.7-.33.74-.63.16-.94-.25-.76-1.02.04-.18.41-.3.63-.45.15.24.31.48.46.72Z"/><path class="cls-3" d="m193.68,379.78c.2.09.58.18.57.27,0,.24-.17.48-.27.72-.19-.09-.52-.18-.53-.28-.01-.23.14-.47.22-.71Z"/><path class="cls-3" d="m479.59,282.78c.62-.21,1.25-.43,1.88-.62.31-.09.64-.19.95-.17.15.01.27.3.4.47-.5.06-1.01.17-1.52.18-.65.02-1.3-.04-1.95-.06l.24.2Z"/><path class="cls-3" d="m535.39,274.69c-.2-.54-.44-1.07-.6-1.63-.08-.28-.11-.79.02-.85.89-.43,1.18-.13.91.8-.16.53-.21,1.09-.31,1.64,0,0-.03.04-.03.04Z"/><path class="cls-3" d="m45.36,55.33c.15.28.45.59.4.83-.05.26-.44.46-.68.69-.66-.69-.56-1.2.28-1.52Z"/><polygon class="cls-3" points="494.82 131.48 495.08 132.24 494.42 132.15 494.82 131.48"/><path class="cls-3" d="m489.98,101.32c-.21.21-.39.51-.65.62-.72.28-1.29.03-1.45-.68-.04-.19.42-.69.51-.66.55.18,1.07.47,1.59.72Z"/><path class="cls-3" d="m368.02,5.74c.11.24.33.51.29.73-.04.21-.34.39-.53.59-.11-.25-.33-.52-.29-.75.03-.21.34-.38.53-.57Z"/><path class="cls-3" d="m103.13,255.9c-.02.22.04.58-.08.64-.27.14-.67.24-.95.16-.29-.08-.5-.39-.75-.61.28-.17.55-.45.85-.48.29-.03.62.18.93.28Z"/><path class="cls-3" d="m94.87,113.46c-.28.11-.58.34-.83.3-.9-.16-1.01-.59-.26-1.03.19-.11.62.02.88.16.15.08.15.38.22.58Z"/><polygon class="cls-3" points="75.61 176.99 75.84 177.53 75.26 177.47 75.61 176.99"/><path class="cls-3" d="m479.35,282.59l.58-.33s-.3.52-.32.52-.26-.2-.26-.2Z"/><path class="cls-3" d="m380.42,237.78c.21,0,.47-.08.6.01.53.36.41.79-.33,1.11-.08.04-.46-.33-.55-.57-.05-.14.18-.37.28-.55Z"/><path class="cls-3" d="m374.52,30.93c.2.22.41.44.61.66-.24.18-.5.52-.72.5-.22-.02-.41-.39-.61-.61.24-.18.48-.36.73-.54Z"/><polygon class="cls-3" points="533.44 116.84 533.67 117.48 533.03 117.39 533.44 116.84"/><polygon class="cls-3" points="365.9 433.42 366.13 434.05 365.5 433.97 365.9 433.42"/><polygon class="cls-3" points="570.01 471.85 569.31 472.02 569.42 471.45 570.01 471.85"/><path class="cls-3" d="m367.68,382.16c-.01-.21,0-.61-.03-.62-.62-.07-.54.09.24.41.02,0-.21.21-.21.21Z"/><path class="cls-3" d="m183.17,665.87c-.23.2-.46.4-.69.6-.21-.22-.58-.45-.57-.66.01-.21.42-.4.65-.6.21.22.41.44.62.66Z"/><polygon class="cls-3" points="211.27 682.22 211.13 681.75 211 681.94 211.27 682.22"/><path class="cls-3" d="m211,681.94c-.33.45-.66.9-1,1.35-.16-.36-.32-.72-.48-1.07.58,0,1.15-.01,1.74-.01,0,0-.26-.27-.26-.27Z"/><path class="cls-3" d="m5.81,627.83c-.11.19-.22.39-.33.6-.33-.21-.67-.41-1-.61.22-.21.44-.41.67-.61.22.21.44.42.66.63Z"/><path class="cls-3" d="m84.42,727.08c.11-.52.07-1.14.36-1.55.42-.57,1.07-.42,1.49.3.08.13-.15.57-.34.64-.56.2-1.16.28-1.75.41l.22.2Z"/><path class="cls-3" d="m89.8,734.73c.35.64.77.66,1.15.01.08-.14-.15-.43-.23-.65-.23.09-.46.19-.68.29l-.23.35Z"/><path class="cls-3" d="m90.03,734.38c.09.27.19.53.28.8.66-.51.5-.67-.49-.47-.02.01.21-.33.21-.33Z"/><polygon class="cls-3" points="521.12 456.21 521.15 456.83 521.38 456.25 521.12 456.21"/><path class="cls-3" d="m137.78,715.19c.23-.86,1.52-1.3,1.59-.94.38,1.98-.91,1.22-1.9.77l.31.17Z"/><path class="cls-3" d="m137.47,715.03c.7.3.83.68.36,1.14-.01.02-.4-.22-.38-.27.09-.24.25-.45.36-.69-.02-.01-.34-.18-.34-.18Z"/><path class="cls-3" d="m143.92,694.93c.18.21.52.43.5.62s-.5.54-.59.5c-.79-.4-.74-.81.09-1.12Z"/><path class="cls-3" d="m521.38,456.25c-.32.24-.64.48-.96.72.2-.23.39-.47.64-.73.05-.03.32.01.32.01Z"/><path class="cls-3" d="m499.77,43.92c-.4.35-.81.7-1.21,1.05-.36-.38-1.12-.94-1.03-1.13.74-1.48,1.55-1.42,2.24.08Z"/><polygon class="cls-3" points="168.7 454.75 169.05 455.51 168.27 455.47 168.7 454.75"/><path class="cls-3" d="m150.08,389.61c-.86.54-1.4.51-1.51-.11,0-.05.56-.31.79-.25.33.09.6.38.91.61.02.03-.2-.26-.2-.26Z"/><path class="cls-3" d="m153.96,389.09c.81-.2,1.78.52,1.52.74-1.68,1.41-1.17-.22-1.3-.93l-.22.2Z"/><path class="cls-3" d="m45.02,371.56c-.23.19-.47.37-.7.56-.19-.22-.55-.46-.53-.66.02-.2.42-.38.65-.56.19.22.39.45.58.67Z"/><polygon class="cls-3" points="1.06 419.81 .28 420.01 .41 419.37 1.06 419.81"/><polygon class="cls-3" points="536.23 221.18 536.6 222.12 535.66 222.03 536.23 221.18"/><polygon class="cls-3" points="160.78 630.62 161.06 631.36 160.33 631.29 160.78 630.62"/><polygon class="cls-3" points="3.19 585.58 3.37 586.16 2.82 586.07 3.19 585.58"/><path class="cls-3" d="m421.38,279.64l-.48.46.48-.46Z"/><path class="cls-3" d="m420.9,280.1c1.61-.46,2.38-.07,2.19,1.15,0,.04-1.09.14-1.23-.06-.31-.43-.34-1.04-.49-1.56,0,0-.48.47-.48.47Z"/><polygon class="cls-3" points="582.18 690.35 582.78 690.17 582.68 690.71 582.18 690.35"/><polygon class="cls-3" points="340.36 51.03 340.84 52.43 339.43 52.23 340.36 51.03"/><polygon class="cls-3" points="536.76 116.6 537.14 117.69 536.01 117.51 536.76 116.6"/><polygon class="cls-3" points="538.95 106.22 540.2 105.78 540.07 106.92 538.95 106.22"/><path class="cls-3" d="m126.46,516.51c-.26.2-.54.57-.78.55-.24-.02-.69-.54-.64-.64.49-.87,1.01-.82,1.41.09Z"/><path class="cls-3" d="m415.05.27c-.24.6-.44,1.22-.72,1.8-.62,1.31-1.07,2.65-1.08,4.1-.01,1.3-.25,2.58-.85,3.75-.61,1.18-.38,2.23.34,3.24.5.71.65,1.49.32,2.21-.7,1.49-.49,3-.51,4.54-.02,1.58.15,3.06.77,4.52.25.59.3,1.25.44,1.88.6,2.65.54,3.36-.51,6.72-.07.22-.14.53-.03.69.87,1.23.28,2.52.17,3.76-.09.96-.95,1.54-1.97,1.77-.24.05-.59,0-.78-.13-.91-.65-1.61-1.45-1.54-2.58.06-1.03.08-2.03-.1-3.06-.17-.98.12-2.03.18-3.05.02-.38.07-.81-.09-1.14-1.05-2.31-.65-4.81-1.09-7.21-.25-1.34.06-2.8.25-4.18.08-.61.51-1.18.84-1.9-.29-.27-.7-.6-1.04-.98-.26-.28-.61-.62-.61-.94-.05-1.8-.19-3.63.05-5.4.31-2.35.09-4.61-.57-6.87-.14-.49-.15-1.02-.22-1.53h8.37Zm-3.76,34.3l-.16.25.28.02-.12-.27Z"/><path class="cls-3" d="m509.19,8.61c-1.24-2.29-1.16-4.74-1.22-7.18,0-.39-.04-.77-.06-1.16h9.2"/><path class="cls-3" d="m530.24,18.16c-.04,1.81-.5,3.55-.84,5.32-.52,2.64-1.26,5.28-.78,8.01.06.37.06.82-.13,1.13-.93,1.6-.28,2.98.69,4.31-.51.84-.96,1.61-1.46,2.36-.51.77-1.91.65-2.41-.18-.48-.79-.9-1.63-.87-2.54.03-1.05-.07-2.03-.54-3-.22-.45-.36-1.06-.21-1.5.48-1.43.46-2.75-.39-4.06-.2-.3-.24-.75-.21-1.11.14-1.47-.41-2.78-.97-4.1-.66-1.55-1.29-3.1-1.93-4.66h10.04Z"/><path class="cls-3" d="m387.44.27c-.05.38-.08.77-.14,1.15-.39,2.43-.54,4.86.06,7.29.06.23-.06.5-.12.75-.03.1-.17.28-.19.27-.25-.09-.65-.16-.69-.32-.21-.73-.29-1.49-.47-2.22-.15-.61-.8-.99-1.58-1.02-.42-.02-.91.33-.89.65.02.51-.08,1.07.12,1.52.42.93.31,1.71-.31,2.52-.21.28-.31.77-.21,1.1.3,1.01.52,2,.15,3.03-.69,1.91-.62,3.76.45,5.57.18.3.11.73.11,1.11,0,.1-.14.26-.25.29-.21.06-.63.11-.65.07-.22-.6-.25-1.24-.76-1.76-1.31-1.32-1.3-3.07-1.64-4.69.42-1.44-.1-2.8-.46-4.17-.99-3.74-2.14-7.45-3.41-11.12h10.88Z"/><path class="cls-3" d="m437.64.27c-.19,1.3-.62,2.49-1.38,3.62-.89,1.32-1.53,2.73-1.76,4.31-.09.61-.62,1.15-.78,1.76-.16.6.09,1.27-.28,1.87-.17.27-.36.28-.68.3-.99.08-1.27.46-.92,1.11.18.34.45.64.62.99.22.46-.52,1.37-1.12,1.35-.24,0-.56-.14-.69-.31-.24-.3-.44-.66-.54-1.02-.7-2.77-1.71-5.43-3.21-7.91-.48-.79-.81-1.62-1.09-2.49-.4-1.23-1.02-2.39-1.55-3.58h13.39Z"/><path class="cls-3" d="m472.78.27c0,1.06-.39,2.03-.96,2.91-.52.8-.75,1.64-.77,2.56,0,.35-.23.52-.47.38-.19-.11-.37-.33-.44-.53-.09-.23-.06-.51-.07-.76-.02-.44-.32-.81-.7-.84-1.16-.09-2.05-.62-2.95-1.22-.78-.52-1.6-1.02-2.44-1.45-.88-.44-1.85-.53-2.81-.17-2.17.83-4.33,1.7-6.5,2.53-.5.19-1.05.3-1.58.43-.45.11-1.21-.38-1.21-.79-.01-1.02,0-2.04,0-3.06h20.92Z"/><path class="cls-3" d="m399.98.27c-.12.5-.17,1.01-.37,1.48-.49,1.19-1.04,2.36-1.58,3.53-.25.55-.9,1.01-1.18.82-.32-.22-.71-.48-.84-.8-.67-1.66-1.27-3.35-1.89-5.03h5.86Z"/><path class="cls-3" d="m441.31,28.46c0-1.29-.04-2.58.01-3.87.02-.5.05-1.15.38-1.46.89-.82.92-1.78,1-2.82.11-1.43.89-2.7,1.59-3.96.32-.57.73-1.1,1.14-1.62,1.02-1.28,1.69-2.63,1.53-4.29-.05-.47.25-.99.45-1.46.3-.7,1.06-.95,1.65-.59.81.5,1.6,1.01,2.56,1.62.05.99.06,2.14.16,3.27.09,1.02.29,2.04.43,2.98-.27.27-.43.47-.63.63-.77.61-.78.6-.21,1.04.31.24.81.46.87.75.22,1.01.27,2.05.9,2.95.6.87,1.22,1.72,1.94,2.71-.06.76,0,1.69-.24,2.53-.24.81-.17,1.53.19,2.23.97,1.88-.22,3.27-1.1,4.84-.23-.34-.43-.53-.52-.77-.26-.68-.8-1.05-1.54-1.12-.69-.06-1.38-.04-2.08-.05-1.11-.02-2.22-.02-3.33-.06-.62-.02-1.2-.65-1.23-1.34-.01-.24.03-.57.19-.72.39-.36.98-.57,1.28-.98.79-1.05,1.93-.8,3-.82,0-.14.08-.33.02-.39-.78-.71-1.59-1.4-2.45-2.14-.36.05-.76.09-1.16.16-.55.1-1.1.17-1.61-.14-.48-.29-1.03-.57-1.48-.08-.34.37-.56.89-.68,1.37-.09.35.11.75.13,1.13.03.49-.15.54-1.19.39l.04.05Zm8.8-4.23c-.09-.21-.12-.5-.28-.6-.19-.12-.5-.09-.76-.07-.11,0-.31.13-.31.2-.02.46.41.58.74.74.3.15.51.04.61-.27Zm.29-10.36l.24.14.02-.24-.26.1Z"/><path class="cls-3" d="m528.29,44.02c.84,1.21.91,1.26.19,1.99-.43.43-.67.86-.43,1.35.39.81.06,1.5-.21,2.22-.18.48-.95.61-1.37.25-.1-.09-.21-.16-.29-.26-.15-.2-1.13-3.72-1.03-3.98.39-1.07.21-1.97-.69-2.79-.22-.2-.15-.72-.14-1.09.01-.41.46-.84.76-.72,1.14.48,2.09.27,3.07-.42.59-.41,1.11-.25,1.45.18.36.46.39.95.06,1.42-.44.63-.93,1.25-1.37,1.84Z"/><path class="cls-3" d="m365.53,32.95c.08.31.26,1.04.46,1.77.19.7-.06,1.27-.65,1.67-.29.2-.83.4-1.08.28-.97-.47-2.04-.91-2.75-1.64-2.24-2.3-2.07-2.77.79-4.22.75-.38,1.53-.51,2.38-.42.56.06,1.08.51,1.04.97-.03.38-.09.76-.19,1.58Z"/><path class="cls-3" d="m412.54,46.3c-.02.99-.34,1.34-1.43,1.55-.23.04-.66-.03-.71-.16-.41-.9-.8-1.82-.6-2.84.13-.64.93-.98,1.56-.68.97.47,1.25,1.24,1.18,2.12Z"/><path class="cls-3" d="m366.25,22.13c-.08.03-.17.06-.25.09-.03-.1-.08-.2-.07-.3,0-.03.15-.06.23-.09.03.1.06.2.09.31Z"/><path class="cls-3" d="m29.84,27.14c.63,1.02,1.05,1.62,1.38,2.26.13.26.2.79.07.87-.27.17-.83.29-1.01.13-2.25-2.03-4.61-3.31-7.74-3.18-2.08.09-4.22-.81-5.97-2.31-.22-.19-.4-.71-.3-.93.25-.57.74-1.57,1.01-1.51,3.16.65,6.34,1.3,9.42,2.31,1.28.42,2.33,1.73,3.14,2.36Z"/><path class="cls-3" d="m29.95,52.21c-2.44.11-4.53.29-6.63.24-.54-.02-1.32-.66-1.63-1.2-1.32-2.34.31-5.39,2.91-5.45.6-.01,1.51.33,1.85.79,1.19,1.68,2.2,3.49,3.5,5.62Z"/><path class="cls-3" d="m90.98,60.36c2.07-2.8,5.63-3.35,8.42-5.06.21-.13,1.45.67,1.49,1.06.1.96.1,2.23-.45,2.83-1.64,1.77-3.9,2.65-6.3,3.19l.3.02c-1.14-.8-2.27-1.6-3.41-2.4l-.05.36Z"/><path class="cls-3" d="m49.5,87.7c-.39.46-1.07.93-1.64.91-1.8-.07-3.41-1.4-3.99-3.08-.09-.27-.05-.64.06-.9.54-1.32,3.07-1.65,4.63-.61,1.07.71,1.68,2.81.95,3.68Z"/><path class="cls-3" d="m44.61.31c.74.29.99.92.39,1.55-.63.68-1.44,1.26-2.29,1.61-.25.11-.99-.62-1.39-1.07-.19-.21-.24-.73-.13-.98.52-1.14,1.83-1.54,3.42-1.12Z"/><path class="cls-3" d="m.56,50.18c-.83.35-1.69.89-2.63,1.02-.37.05-1.22-.75-1.34-1.26-.12-.51.25-1.5.65-1.61.91-.25,1.97-.16,2.96-.03.14.02.22,1.06.37,1.88Z"/><path class="cls-3" d="m7.96,91.34c1.37.37,2.41.41,3.16.91.94.64,1.02,2.27.37,2.73-.83.57-2.57.6-2.95-.18-.42-.86-.35-1.94-.57-3.46Z"/><path class="cls-3" d="m52.64,27.55c-.5.57-1.14.58-1.76-.09-.61-.66-.49-1.28.27-1.65.3-.14.97-.2.98-.16.21.62.35,1.26.5,1.9Z"/><path class="cls-3" d="m74.97,73.98c.06.03-.12.6-.19.92"/><path class="cls-3" d="m17.39,69.73c0,.5.19,1.25-.05,1.42-.36.26-1.03.11-1.57.13.02-.32-.08-.81.08-.92.45-.3,1.01-.43,1.54-.63Z"/><path class="cls-3" d="m6.44,50c-.13.26-.18.67-.39.75-.91.36-1.36,0-1.12-.89.06-.23.51-.46.79-.44.23,0,.48.37.71.58Z"/><polygon class="cls-3" points="48.17 68.53 47.78 69.23 47.41 68.74 48.17 68.53"/><path class="cls-3" d="m52.18,66.95c.21-.14.42-.29.64-.43"/><polygon class="cls-3" points="11.18 72.9 11.7 73.2 11.25 73.48 11.18 72.9"/><path class="cls-3" d="m91.03,60c-.99-.23-1.35-.63-.99-1.14.03-.04.61.18.74.38.17.29.15.69.21,1.08,0,.04.04-.32.04-.32Z"/><path class="cls-3" d="m94.14,62.39c.71.43.89,1.63.55,1.6-2.18-.2-.67-.98-.26-1.58l-.29-.02Z"/><path class="cls-3" d="m601.65,863.96c-9.61-1.58-18.07,1.06-25.5,7.73-.32.28-1.02.06-2.13.1-4.57-3.92-9.52-8.13-14.43-12.38-1.46-1.26-1.48-3.4-.18-4.78,1.34-1.42,2.94-1.96,4.7-1.28,2.95,1.15,3.9,4.38,5.79,6.64.47.57,2.3.67,2.84.16,1.9-1.77,3.81-2.79,6.22-1.54,2.31,1.19,4.26,1.03,6.27-.84,1.27-1.18,2.87-2.09,4.46-2.71,2.2-.85,4.68-1.11,6.66.43"/><path class="cls-3" d="m349.19,682.86c.57.03,1.19-.1,1.7.11,4.4,1.86,7.66,5.12,9.35,9.89.29.82-.5,2.47-1.24,3.22-.67.68-2.37,1.25-2.91.83-3.68-2.93-7.23-6.07-10.63-9.36-.37-.36.14-2.4.76-3.16.67-.82,1.96-1.04,2.99-1.53Z"/><path class="cls-3" d="m461.9,814.13c-1.6-3.69-3.23-7.46-4.82-11.12,2.9-3.26,6.28-2.35,9.47-1.91.8.11,2.06,1.46,2.08,2.26.1,3.65-.5,7.24-3.26,9.74-.74.67-2.05.64-3.46,1.03Z"/><path class="cls-3" d="m538.03,841.99c-2.29-.69-5.07-1.37-7.7-2.46-.56-.23-1.07-2.22-.76-3.01,1.68-4.19,5-5.41,8.01-3.18,1.4,1.04,2.66,2.34,4.15,3.18,1.29.72,1.93,1.58,1.05,2.89-.6.89-1.67,1.44-2.6,2.01-.47.29-1.09.3-2.14.57Z"/><path class="cls-3" d="m570.42,823.15c-2.84-.67-5.29-2.21-6.93-4.8-.37-.58.28-2.39.94-3.12,1.23-1.36,2.99-1.83,4.66-.9,2.53,1.4,3.62,5.06,2.43,7.79-.18.42-.7.66-1.11,1.03Z"/><path class="cls-3" d="m302.15,766.04c.53.03,1.28-.16,1.53.14,1.47,1.69,3.01,3.38,4.12,5.34.37.65-.17,2.65-.8,3.01-.67.38-2.4-.1-2.86-.8-1.23-1.91-2.07-4.11-2.92-6.26-.11-.28.59-.94.92-1.42Z"/><path class="cls-3" d="m452.58,796.87c-2.97.46-5.74.99-8.53,1.18-.33.02-1.32-2.11-1.07-2.86,1.03-3,2.78-4.12,5.13-3.87,1.92.21,2.26.6,4.47,5.55Z"/><path class="cls-3" d="m342.5,818.96c.56-.22,1.37-.3,1.84-.01"/><path class="cls-3" d="m479.92,807.7c-1.24-.75-2.7-1.54-4.05-2.52-.38-.27-.72-1.25-.55-1.63.41-.93,1.03-2.27,1.75-2.41,1.64-.33,3.39-.15,5.08.05,1.67.2,2.22,2.61.88,4.25-.7.86-1.81,1.35-3.12,2.26Z"/><path class="cls-3" d="m465.97,652.38c-.96-.8-2.19-1.33-2.36-2.12-.18-.84.41-2.49,1.07-2.8,1.44-.68,3.13-.81,4.74-.99.46-.05,1.42.5,1.41.73-.05.97-.09,2.32-.66,2.8-1.26,1.05-2.85,1.65-4.21,2.39Z"/><path class="cls-3" d="m494.68,504.66c-2.66.55-4.07-.36-4.32-2.62-.11-.99.44-2.66,1.15-3.05,2.32-1.26,5.83.09,5.46,1.86-.33,1.57-1.69,2.87-2.29,3.81Z"/><path class="cls-3" d="m404.21,635.22c-.18-1.25-1-3.09-.49-4.31.73-1.77,2.79-2.07,4.47-1.38.75.31,1.72,1.68,1.62,2.41-.38,2.64-3.08,4.35-5.6,3.28Z"/><path class="cls-3" d="m565.04,714.4c-.83-1.38-1.77-2.63-2.3-4.06-.12-.32,1.21-1.8,1.89-1.8,1.76-.02,3.43,1.93,3.01,3.48-.22.81-1.38,1.31-2.6,2.38Z"/><path class="cls-3" d="m318.41,860.17c1.2-.06,1.9.62,1.85,2-.05,1.37-.83,2.04-2.05,1.72-.44-.11-1.14-.85-1.08-1.05.29-.94.83-1.79,1.27-2.67Z"/><path class="cls-3" d="m417.42,730.16c-1.45-.21-2.59-.25-3.64-.6-.3-.1-.64-1.24-.46-1.64.99-2.2,2.71-1.13,4.23-.89.56.09,1.14.14,1.65.37.46.2,1.02.51,1.23.94.49,1.01-.15,1.66-1.67,1.79-.56.05-1.12.04-1.34.04Z"/><path class="cls-3" d="m320.86,826.91c.61.68,1.11,1.1,1.42,1.64.29.51-.41,1.11-1.27.99-.4-.06-.77-.41-1.15-.63.29-.59.59-1.17,1-2Z"/><path class="cls-3" d="m519.28,850.95c-.27-1.05-.97-2.28-.67-3.07.27-.73,1.71-1.48,2.48-1.32,1.28.26,1.65,1.67.78,2.77-.62.77-1.71,1.1-2.59,1.63Z"/><path class="cls-3" d="m314.21,737.56c-.33-.3-.81-.53-.96-.91-.2-.51.18-.89.76-.86.18.01.5.29.49.42-.03.45-.18.9-.29,1.35Z"/><path class="cls-3" d="m315.2,731.61c.07-.18.13-.51.21-.51.61-.04,1.23-.03,1.85.02.09,0,.25.35.23.53-.06.55-.87.76-1.78.43-.2-.07-.34-.31-.51-.47Z"/><path class="cls-3" d="m553.21,764.56c.86,2.01-.14,3.4-1.62,4.13-.52.25-2.28-.79-2.33-1.37-.22-2.14,1.34-2.97,4.26-2.53l-.31-.23Z"/><path class="cls-3" d="m409.6,607.71c.4.39,1.12.75,1.16,1.17.21,2.1-2.36,4.71-3.97,4.07-.43-.17-.99-.94-.94-1.35.14-1.1.33-2.43.98-3.14.57-.62,1.81-.53,2.76-.75Z"/><path class="cls-3" d="m489.73,586.57c-1.77-.78-2.86-2.76-1.89-3.77.62-.64,2.11-1.03,2.81-.66.7.37,1.23,1.84,1.22,2.82,0,1.46-.97,2-2.14,1.6Z"/><path class="cls-3" d="m346.54,615.84c-1.28-.59-1.7-1.57-.83-2.23.65-.49,1.71-.46,2.59-.44.22,0,.67.87.61,1.28-.21,1.45-1.08,1.9-2.37,1.39Z"/><path class="cls-3" d="m468.96,761.52c-.38.46-.91,1.35-1.09,1.27-.94-.4-2.61-1.31-2.54-1.57.37-1.36,1.52-1.76,2.73-1.12.43.23.63.96.91,1.42Z"/><path class="cls-3" d="m503.51,721.9c.5-1.18,1.06-2.55,1.64-3.91.4.39,1,.71,1.17,1.19.73,2.06.02,4.38-1.14,4.26-.43-.04-.81-.72-1.67-1.55Z"/><path class="cls-3" d="m548.74,797.18c-.44-1.06-1.14-2.04-1.14-3.01,0-.56,1.12-1.12,1.74-1.68.4.96,1.1,1.93,1.08,2.88,0,.61-1.08,1.19-1.69,1.81Z"/><path class="cls-3" d="m553.52,764.79c-.28-1.03-.92-2.15-.72-3.06.18-.83,1.22-1.5,1.98-2.08.12-.1,1.08.59,1.16,1.02.19.98.44,2.35-.01,2.95-.51.67-1.78.65-2.72.93l.31.23Z"/><path class="cls-3" d="m374.8,848.79c-.94-.03-1.89-.37-2.8-.7-.1-.04-.07-1.11.04-1.15.93-.26,1.9-.53,2.84-.5.38.01,1.03.81,1.01,1.22-.01.41-.71,1.14-1.1,1.13Z"/><path class="cls-3" d="m416.07,793.2c-.39.39-.86,1.17-1.14,1.1-.94-.24-1.81-.79-2.71-1.22.37-.4.84-1.21,1.1-1.14.95.26,1.84.82,2.75,1.27Z"/><polygon class="cls-3" points="311.8 854.43 311.64 854.03 312.01 854.06 311.8 854.43"/><polygon class="cls-3" points="321.35 780.89 320.98 781.05 321.01 780.65 321.35 780.89"/><path class="cls-3" d="m513.52,787.65c-.36-.39-.72-.79-1.08-1.18.37-.37.91-1.15,1.1-1.06,1.5.69,1.47,1.51-.02,2.24Z"/><path class="cls-3" d="m542.73,581.51c-.38.26-1.13.61-1.1.79.27,1.44,1.04,1.7,2,.7.1-.11-.35-.83-.55-1.27l-.34-.22Z"/><path class="cls-3" d="m543.07,581.73c-1.62.89-3.24,1.78-4.85,2.67l.41-.3c1.91.17,3.99.68,4.1-2.55,0-.03.34.19.34.19Z"/><path class="cls-3" d="m538.22,584.4l-.77.14s1.16-.45,1.17-.45c.01,0-.4.31-.4.31Z"/><polygon class="cls-3" points="337.39 829.23 336.46 829.63 336.52 828.69 337.39 829.23"/><polygon class="cls-3" points="438.5 585.22 437.55 585.57 437.67 584.6 438.5 585.22"/><polygon class="cls-3" points="441.94 826.73 440.86 827.14 441.01 826 441.94 826.73"/><polygon class="cls-3" points="452.37 828.62 452.86 829.86 451.71 829.75 452.37 828.62"/><path class="cls-3" d="m23,699.4c-.81-1.07.39-3.75,1.66-4.15"/><path class="cls-3" d="m60.85,819.01c-4.46-.39-7.74-.54-10.93-1.09-.66-.12-1.58-1.94-1.35-2.7.3-.97,1.85-2.49,2.51-2.36,4.48.94,8.77.67,13.17-.37.71-.17,2.1,1.28,2.81,2.22,1.26,1.66.15,4.3-1.64,4.31-1.92,0-3.85,0-4.56,0Z"/><path class="cls-3" d="m273.46,788.56c3.27-.11,6.49.08,7.69,3.55.27.78-.49,2.63-1.11,2.78-3.34.81-6.2-.33-8.45-2.71-.39-.41-.81-1.35-.6-1.6.67-.79,1.62-1.37,2.47-2.03Z"/><path class="cls-3" d="m230.55,833.64c1.22,1.16,2.74,2.22,3.69,3.61,1.21,1.76.4,4.45-1.17,4.48-1.09.02-2.62-.5-3.22-1.27-1.09-1.39-1.83-3.09-2.25-4.77-.1-.39,1.66-1.19,2.95-2.05Z"/><path class="cls-3" d="m176.14,821.55c-.77-.75-2.2-1.55-2.15-2.24.09-1.04,1.01-2.23,1.94-2.97,1.72-1.39,4.11-1.27,5.1.03.35.46.57,1.08.61,1.64.14,2.06-1.01,3.2-3.55,3.54-.63.08-1.3.01-1.95.01Z"/><path class="cls-3" d="m8.44,874.9c-.71-.1-1.36-.05-1.45-.23-.49-1.03-1.04-2.1-1.15-3.2-.05-.47.9-1.03,1.4-1.55.53.52,1.43.99,1.5,1.56.14,1.11-.17,2.27-.3,3.42Z"/><path class="cls-3" d="m245.1,860.67c-.22.51-.29,1.19-.63,1.36-1.08.51-1.77-.06-1.64-1.42.03-.33.76-.85,1.15-.84.39.02.76.59,1.12.9Z"/><polygon class="cls-3" points="268.76 805.12 267.59 804.4 268.96 804.03 268.76 805.12"/></g></mask></defs><g class="cls-1"><path class="cls-4" d="m166.81,869.3c-5.22,0-11.44-3.9-18.52-4.43-5.73-.43-11.75-1.71-18.3-2.75-5.87-.93-12.39.14-18.65-1.45-5.85-1.49-11.94-3.09-17.91-5.3s-11.79-4.04-17.42-6.95c-5.42-2.8-9.72-7.78-14.9-11.42s-11.34-5.64-15.94-10.02-7-10.28-10.91-15.33c-3.68-4.76-6.99-9.89-10.14-15.5-2.93-5.21-7.48-9.97-9.86-15.97-2.2-5.54-4.6-11.48-6.26-17.74-1.53-5.76-1.88-12.15-2.9-18.55-.94-5.89,1.42-12.34.95-18.8-.43-5.96-.57-11.99-.57-18.46,0-9-2.88-9-2.88-18s1-9,1-18.01.1-9,.1-18.01.9-9,.9-18.01-1.96-9-1.96-18.01c0-9-1.52-9-1.52-18.01,0-9,4.49-9,4.49-18.01s-2.5-9.01-2.5-18.01-1.12-9-1.12-18.01,2.94-9.01,2.94-18.01-4.23-9-4.23-18.01,2.62-9.01,2.62-18.01-1.52-9-1.52-18.01-.5-9.01-.5-18.01c0-9.01,1.61-9.01,1.61-18.01,0-9,2.63-9,2.63-18.01,0-9.01-1.87-9.01-1.87-18.01,0-9.01-1.49-9.01-1.49-18.01s3.13-9.01,3.13-18.01-.61-9.01-.61-18.01c0-9.01-3.36-9.01-3.36-18.01s1.76-9.01,1.76-18.01-.94-9.01-.94-18.01c0-9.01.49-9.01.49-18.01s-1.52-9.01-1.52-18.01,1.78-9.01,1.78-18.01.22-9,.22-18.01-1.17-9-1.17-18.01c0-9.01,2.9-9.01,2.9-18.01s-.2-9.01-.2-18.01-2.3-9.01-2.3-18.01,2.61-9.01,2.61-18.01-2.68-9.01-2.68-18.01,2.61-9.01,2.61-18.02c0-9.01-1.33-9.01-1.33-18.01,0-9.01.51-9.01.51-18.02,0-9.01-1.44-9.01-1.44-18.02s-1.04-9.01-1.04-18.02S-2.98,10.88,3.38,4.5c6.36-6.37,8.7-1.21,17.7-1.21s9-1.26,17.99-1.26,9,1.95,18,1.95,9,1.89,18,1.89,9-.83,18-.83,10.67-6.23,17.04.13,3.1,8.03,3.1,17.03-4.32,9-4.32,18c0,9,3.81,9,3.81,18,0,9-3.86,9-3.86,18,0,9,.61,9,.61,18,0,9,3.97,9,3.97,18s-.51,9-.51,18-2.46,9-2.46,18c0,9-.62,9-.62,18s1.92,9,1.92,18c0,9-2.39,9-2.39,18s1.34,9,1.34,18,1.77,9,1.77,18c0,9-3.89,9-3.89,18,0,9,.72,9,.72,18s.9,9,.9,18c0,9-1.54,9-1.54,18,0,9,3.15,9,3.15,18s1.56,9,1.56,18-4.73,9-4.73,18.01-4.09,11.8,2.12,18.33,8.9.46,17.47.46,8.57.08,17.14.08,8.57-1.95,17.14-1.95,8.57.59,17.14.59,8.57,1.78,17.14,1.78,8.57-3.15,17.15-3.15,11.46-4.55,17.37,1.66c6.21,6.52.46,9.22.46,18.21s-1.36,9-1.36,17.99-.5,9-.5,18,1.33,9,1.33,18-1.42,9-1.42,18c0,9,9.3,13.22,3.09,19.74s-10.39.2-18.96.2-8.57-2.55-17.14-2.55-8.57,2.14-17.14,2.14-8.57.17-17.14.17c-8.57,0-8.57-1.85-17.14-1.85-8.57,0-8.57,1.14-17.15,1.14s-8.41-2.37-16.27,1.04c-9,3.91-2.14,5.42-2.14,17.61,0,5.62-.03,12.25-.03,19.63,0,6.09,2.59,12.68,2.59,19.64,0,9.44-1.62,9.44-1.62,18.88s.95,9.44.95,18.88c0,9.44-2.33,9.44-2.33,18.89s.83,9.44.83,18.88q0,9.44.01,18.89c0,9.44-.86,9.44-.86,18.89,0,9.45,2.38,9.45,2.38,18.89,0,9.45-2.98,9.45-2.98,18.89,0,7.26,4.27,13.51,5.15,19.28,1.13,7.36-.71,14.74,1.57,19.98,2.98,6.85,8.88,11.18,13.17,15.09,5.19,4.74,11.29,7.09,17.21,8.81,6.72,1.95,13.37.97,19.22.97,6.33,0,12.97.91,18.88-1.6,6.13-2.6,11.8-6.4,16.57-9.86,8.08-5.87,12.55-11.19,13.16-12.38,5.32,4.43,5.65,4,10.53,8.92s5.65,4.13,10.6,8.97c6.32,6.18,6.45,6.03,12.85,12.14s4.37,8.23,10.76,14.34,5.84,6.7,12.24,12.81c6.4,6.11,8.96,3.37,12.91,11.28,3.8,7.6-1.02,6.04-8.65,13.2-3.56,3.33-9.33,5.6-14.34,9.54-4.14,3.25-9.15,6.05-14.2,9.34-4.54,2.96-9.3,6.04-14.51,8.77-4.87,2.55-10.69,3.2-16.1,5.34-5.15,2.03-9.77,5.77-15.36,7.25s-10.82,3.23-16.56,4c-5.49.73-11.23,2.91-17.03,2.91Z"/><path class="cls-4" d="m457.56,109.4c-6.21,6.52-.72,10.45-.72,19.45,0,9,.11,9,.11,18,0,9,4.23,9,4.23,18,0,9-2.79,9-2.79,18,0,9,.08,9,.08,18,0,9,2.38,9,2.38,18,0,9-3.22,9-3.22,18,0,9,.05,9,.05,18,0,9,3.34,9,3.34,18s-3.62,9-3.62,18,3.04,9,3.04,18,.77,9,.77,18-1.95,9-1.95,18c0,9,1.92,9,1.92,18.01,0,9-9.95,13.05-3.74,19.57s10.21-.94,18.78-.94,8.57.78,17.14.78,8.57-1.56,17.14-1.56,8.57.84,17.14.84,8.57-.04,17.14-.04,8.57-.61,17.15-.61,10.06-5.12,15.97,1.09c6.21,6.52,3.41,7.88,3.41,16.88s-3.91,9-3.91,17.99,2.79,9,2.79,18,1.06,9,1.06,18c0,9-2.5,9-2.5,18,0,9,7.31,12.23,1.1,18.75-5.91,6.21-9.35-1.99-17.92-1.99-8.57,0-8.57.72-17.14.72s-8.57,1.45-17.14,1.45-8.57-1.83-17.14-1.83-8.57,2.44-17.14,2.44c-8.57,0-8.57.15-17.15.15s-12.2-8.81-18.11-2.6c-6.21,6.52-1.51,9.92-1.51,18.92,0,9,3.38,9,3.38,18s-1.79,9-1.79,18c0,9,.64,9,.64,18,0,9-.46,9-.46,18,0,9-1.73,9-1.73,18,0,9-.08,9-.08,18s3.38,9,3.38,18c0,9-2.69,9-2.69,18s2.78,9,2.78,18,.88,9,.88,18c0,9-2.98,9-2.98,18s.81,9,.81,18c0,9-2.04,9-2.04,18.01,0,9-4.81,12.41,1.4,18.93,5.91,6.21,9.54,1.13,18.11,1.13s8.57-2.95,17.14-2.95,8.57,3.21,17.14,3.21,8.57-1.58,17.14-1.58,8.57,1.32,17.14,1.32,8.57-.72,17.15-.72,10.28-6.62,16.19-.42c6.21,6.52-.54,8.09-.54,17.09,0,9,2.34,9,2.34,17.99s1.21,9,1.21,18c0,9-.69,9-.69,18,0,9,1.08,9,1.08,18,0,9,3.84,11.56-2.44,18.01s-8.77-2.04-17.54-2.04c-8.77,0-8.77-.43-17.53-.43s-8.77,2.09-17.54,2.09c-8.77,0-8.77-.08-17.54-.08s-8.77,2.64-17.54,2.64c-8.77,0-8.77-3.55-17.54-3.55-8.77,0-8.77.42-17.54.42-8.77,0-8.77-1.39-17.54-1.39s-8.77.56-17.54.56-8.77,1.99-17.54,1.99c-8.77,0-8.77-.9-17.54-.9-8.77,0-8.77,2.31-17.54,2.31s-13.02,6.21-19.14-.08.23-10.55.23-19.55-.89-9-.89-18,3.92-9,3.92-18-2.51-9-2.51-18c0-9,1.54-9,1.54-18s-1.5-9-1.5-17.99,2.44-9,2.44-17.99-2.08-9-2.08-18c0-9,2.7-9,2.7-18,0-9-1.38-9-1.38-17.99s-2.76-9-2.76-18,1.89-9,1.89-18,.41-9,.41-18c0-9-.16-9-.16-18s.35-9,.35-18-.55-9-.55-18c0-9-2.32-9-2.32-18s1.7-9,1.7-18c0-9-1.09-9-1.09-18s1.02-9,1.02-18c0-9-1.08-9-1.08-18,0-9-.19-9-.19-18,0-9,1.75-9,1.75-18s-1.63-9-1.63-18,3.72-9,3.72-18-3.19-9-3.19-18,2.47-9,2.47-18c0-9-3.06-9-3.06-18,0-9,2.9-9,2.9-18s-1.89-9-1.89-18c0-9,3.15-9,3.15-18,0-9-1.06-9-1.06-18s.44-9,.44-18c0-9-2.26-9-2.26-18,0-9,1.1-9,1.1-18s-1.48-9-1.48-18c0-9-1.39-9-1.39-18,0-9,.58-9,.58-18,0-9,2.23-9,2.23-18,0-9-.32-9-.32-18s.09-9,.09-18,.81-9,.81-18c0-9-1.24-9-1.24-18s2.01-9,2.01-18c0-9-.19-9-.19-18.01s-2.17-9-2.17-18.01.03-9,.03-18.01-5.85-11.63.43-18.08c6.12-6.28,8.84.03,17.61.03s8.77.05,17.53.05,8.77-1.42,17.54-1.42,8.77-.73,17.54-.73,8.77,1.49,17.54,1.49,8.77,1.85,17.54,1.85,8.77.76,17.54.76,8.77-3.44,17.54-3.44,8.77,3.46,17.54,3.46,8.77-.03,17.54-.03,8.77-1.14,17.54-1.14,8.77-1.33,17.54-1.33,10.56-4.92,16.68,1.36.12,8.16.12,17.16,1.03,9,1.03,17.99-1.41,9-1.41,18,3.22,9,3.22,18c0,9-.38,9-.38,18,0,9,4.53,11.51-1.68,18.03-5.91,6.21-8.6,1.95-17.17,1.95s-8.57-.76-17.14-.76-8.57.69-17.14.69-8.57.56-17.14.56c-8.57,0-8.57-.11-17.14-.11s-9.24,1.31-17.54-.81c-9.71-2.49-12.36-9.2-18.28-2.99Z"/></g></svg>