<?xml version="1.0" encoding="UTF-8"?><svg id="Layer_1" xmlns="http://www.w3.org/2000/svg" viewBox="0 0 432 288"><defs><style>.cls-1{fill:#242424;stroke-width:0px;}</style></defs><path class="cls-1" d="m131.19,163.03c.25.11.5.23,1.04.47-.63.66-1.15,1.3-1.76,1.82-.6.52-1.31.89-1.94,1.38-.79.62-1.47,1.22-2.61,1.37-.82.11-1.68.96-2.26,1.69-1.48,1.84-3.19,3.35-5.02,4.85-1.59,1.31-3.52,2.27-4.69,4.19-1.07,1.76-3.03,2.54-4.93,3.27-.54.21-1.34.72-1.37,1.14-.15,2.05-1.68,2.47-3.16,3.05-.52.2-1.18.41-1.45.83-1.38,2.1-3.49,1.66-5.15.6-1.78-1.14-3.49-2.41-5.11-3.76-.46-.38-.49-1.27-.69-1.84-.13.17-.37.72-.63.74-.38.02-.85-.28-1.17-.56-1.55-1.38-3.04-2.82-4.6-4.19-.48-.42-1.08-.7-1.65-1.01-1.39-.74-2.57-1.68-3.53-2.96-.38-.51-1.09-.77-1.64-1.15-.87-.59-1.73-1.19-2.6-1.79-.07-.05-.17-.06-.21-.11-2.17-2.57-5.16-4.21-7.4-6.74-1.62-1.83-3.77-3.18-5.64-4.81-.56-.49-.95-1.18-1.41-1.79-.14-.19-.22-.48-.4-.57-1.33-.62-1.95-1.86-2.82-2.93-1.18-1.45-2.78-2.55-4.04-3.95-1.43-1.58-2.68-3.33-3.99-5.01-.67-.86-1.38-1.69-1.97-2.61-.51-.78-.9-1.64-1.28-2.49-.32-.7-.19-1.24.73-1.22.79.02,1.53.14,1.72-1,.05-.31.75-.54,1.19-.74.4-.18.84-.27,1.32-.42,1.85,1.52,3.71,3.15,5.68,4.63,1.29.97,2.74,1.72,4.12,2.57.24.14.48.28.7.45,1.35,1,2.7,2,4.03,3.02.99.76,1.95,1.57,2.94,2.34,1.81,1.4,3.65,2.77,5.45,4.18,1.48,1.16,2.9,2.4,4.39,3.54,1.12.85,2.31,1.61,3.47,2.39.61.41,1.33.58,1.4,1.61.05.67,2.89,1.6,3.58,1.34,1.32-.5,2.18-.09,2.7,1.39,1.08-1.05,1.88-.03,2.73.39.93.46,1.83,1.01,2.65,1.63.61.46,1.02,1.16,1.62,1.64.73.59,1.5,1.23,2.36,1.57,1.21.47,1.79,1.04,1.71,2,.91.28,1.77.55,2.8.87-.52-1.12-.03-1.51.83-1.77.39-.12.77-.44,1.05-.76,1.09-1.2,2.12-2.45,3.2-3.67,1.2-1.36,2.4-2.72,3.64-4.05.4-.43.91-.77,1.58-1.32-.1.64-.16,1-.22,1.36.08.04.16.09.24.13.26-.36.72-.7.76-1.08.18-1.77,1.65-2.58,2.81-3.32.69-.44,1.14-1.18,1.99-1.48.62-.22,1-1.05,1.56-1.51.24-.2.68-.23,1.03-.23.99-.02,1.75-.19,1.75-1.45,0-.26.51-.73.82-.75.96-.09,1.51-.24,1.92-1.39.31-.88,1.6-1.45,2.51-2.07.78-.53,1.64-.95,2.48-1.4,1.43-.77,2.89-1.47,4.28-2.29.62-.36,1.05-1.03,1.67-1.41,2.38-1.45,4.78-2.89,7.22-4.23,2.32-1.27,4.69-2.46,7.08-3.59,1.05-.5,2.24-.68,3.3-1.16,1.43-.66,2.75-1.54,4.18-2.2,1.08-.5,2.26-.79,3.38-1.2,1.16-.42,2.3-.88,3.47-1.28.63-.22,1.29-.34,1.93-.56,2.67-.91,5.31-1.92,8.01-2.74,1.26-.39,2.63-.41,3.94-.66.69-.13,1.35-.43,2.04-.58,1.45-.33,2.89-.74,4.35-.88,1.62-.15,3.3-.67,4.88.32.2.12.87-.07.9-.21.18-.87.84-.66,1.42-.81,3.35-.9,6.79-.01,10.1-.49,4.41-.63,8.79-.13,13.18-.31.19,0,.37-.09.86-.21-.5-.27-.74-.44-1-.54-.62-.24-.89-.62-1.03-1.34-.28-1.48-.81-2.91-1.23-4.36-.15-.53-.32-1.05-.42-1.59-.15-.82-.27-1.65-.37-2.47-.04-.35-.11-.79.05-1.07.86-1.47.01-2.88-.06-4.31-.09-1.76,0-3.52.02-5.28.02-2.97.11-5.94.05-8.91-.03-1.7-.04-3.47-.53-5.06-.48-1.56-.52-3.08-.37-4.58.35-3.42-.92-6.72-.61-10.13.18-1.99.14-4.01.2-6.01.05-1.84-.03-3.7.2-5.52.17-1.42,0-3.09,1.52-4.03.37-.23.81-.34,1.19-.49.95-.86,1.92-1.74,2.8-2.54.4.2.54.23.54.27.14,1.79,1.98,1.79,2.88,2.77.2.22.32.51.45.78.04.09-.05.28,0,.33.92.79,1.78,1.66,2.79,2.31,1.4.91,2.99,1.41,2.81,3.72-.12,1.52.59,3.1.91,4.65.07.36.1.73.1,1.1-.02,2.35.4,4.63,1,6.9.36,1.38.39,2.84.62,4.25.18,1.07.45,2.12.69,3.17.1.47.25.93.32,1.4.37,2.31.73,4.62,1.1,6.94.03.16.05.32.06.49.17,2.13.4,4.26.51,6.4.2,3.91.35,7.82.46,11.73.04,1.47,0,2.95-.19,4.41-.25,1.92-.68,3.82-1.09,6.07,1.43,0,2.85-.12,4.24.03,1.33.14,2.63.56,3.94.87.19.04.34.23.53.27,1.35.26,2.7.54,4.06.72,2.12.29,4.25.42,6.36.78.75.13,1.43.72,2.22,1.14.48-.71,1.38-.6,2.34-.35.74.19,1.49.34,2.25.46.66.1,1.44-.17,1.69.82.03.11.53.12.82.15.47.05.96.02,1.41.14,1.46.38,2.92,1.15,4.36,1.11.83-.03,1.49.26,2.21.29,1.34.06,2.53,1,3.63.99,1.63-.01,2.87.86,4.35,1.08,1.12.16,2.17.71,3.27,1.03,1,.29,2.01.53,3.03.75,1.28.28,2.59.46,3.85.78,1.18.3,2.31.76,3.47,1.11.96.29,1.93.61,2.91.76,1.94.3,3.58,1.23,5.24,2.17,1.07.6,2.24,1.03,3.3,1.65.36.21.47.8.77,1.16.44.54.94,1.03,1.41,1.54.11-.06.23-.12.34-.18-.04-.39-.08-.77-.14-1.39,1.32.58,2.56,1.06,3.76,1.65,1.44.71,2.84,1.5,4.26,2.25.14.08.29.15.43.24,1.8,1.19,3.56,2.44,5.4,3.57,1.41.86,2.93,1.54,4.36,2.37,1.75,1.03,3.44,2.14,5.16,3.2,1.47.91,2.94,1.79,4.12,2.52,1.13.82,1.98,1.51,2.9,2.07.89.54,1.87.92,2.79,1.41.95.5,1.64.29,2.3-.59,1.11-1.47,2.3-2.87,3.44-4.3.48-.6.88-1.28,1.43-1.82.94-.92,2.06-1.68,2.95-2.64,1.31-1.43,2.48-2.98,3.73-4.47.42-.5.95-.91,1.34-1.43.39-.52.62-1.16,1.02-1.68.33-.42.81-.72,1.21-1.09.95-.89,1.92-1.75,2.81-2.69.34-.36.49-.9.68-1.26,2.12-2.09,4.28-4.12,6.31-6.26,1.51-1.59,2.64-3.59,4.3-4.96,1.93-1.6,2.97-3.92,4.91-5.43,1.21-.94,2.51-1.78,3.82-2.57.31-.19.84-.03,1.26-.03.07.11.13.21.2.32-.29.12-.59.24-.94.39,1.04.71,2.21.54,2.84,1.72.46.86,2.05.94,1.91,2.36,2,.22,1.8.19,1.25,2.25-.4,1.52-.61,3.06-1.4,4.47-.6,1.07-1.06,2.23-1.51,3.37-1.03,2.57-3,4.49-4.51,6.73-.63.93-1.04,2.02-1.55,3.03-.04.07-.06.15-.11.22-2.21,3.01-4.41,6.03-6.65,9.02-.8,1.06-1.76,2.01-2.54,3.08-.68.94-1.17,2.02-1.8,3-.39.61-.9,1.14-1.32,1.72-.18.25-.32.53-.43.82-.1.26-.03.69-.19.8-1.19.76-1.79,1.98-2.53,3.08-.77,1.14-1.33,2.53-2.34,3.39-.95.81-.87,2.24-2.37,2.81-.98.38-1.46,2.08-2.14,3.2-.05.09.14.32.14.3-.87.7-1.65,1.33-2.42,1.95-1.49.43-3.19-.44-4.62.88-.53.49-1.45.57-2.29.87-.56-.35-.98-.76-.19-1.26-.68-.55-1.37-1.08-2.03-1.64-.77-.65-1.27-1.74-2.6-1.45-.25.06-.61-.23-.87-.42-1.62-1.22-3.19-2.53-4.86-3.68-1.35-.94-2.84-1.68-4.23-2.57-.28-.18-.6-.72-.51-.94.52-1.28.53-1.3-.86-1.25-.24,0-.48,0-.7,0,0,.37.1.72-.04.92-.09.13-.55.12-.78.02-.98-.45-1.93-.95-2.95-1.47.19-.16.41-.36.64-.55q-.89-.93-1.16-.04c-1.74-.7-3.96-.68-4.45-2.99-.78-.55-1.5-1.06-2.44-1.72-.19.09-.71.57-1.16.51-.83-.1-1.61-.53-2.43-.81-.91-.31-1.29-.88-1.23-1.88.03-.44-.38-.9-.59-1.36-.18.03-.35.07-.53.1.06.65.11,1.3.17,1.93-3.09-1.17-6.33-2.4-9.51-3.61-.08-.53-.15-1.02-.26-1.73-1.55,1.24-2.78.39-3.96-.21-1.09-.56-2.54-.96-2.1-2.89-.41,1.15-.71,1.42-1.8.82-1.64-.9-3.5-1.41-5.23-2.16-.93-.4-1.8-.94-3.03-1.59-.64.27-1.45.35-1.89-1.17-.14-.49-1.48-.72-2.31-.88-.47-.09-1.01.18-1.52.29,0-1.58-.21-1.75-2.05-1.32.58.23.9.35,1.22.48-.09.17-.18.35-.26.52-.77-.19-1.54-.37-2.31-.57-.89-.24-1.77-.51-2.65-.74-1.01-.26-2.04-.44-3.03-.77-.33-.11-.55-.57-.83-.86-.31-.32-.62-.85-.96-.87-.45-.03-.92.34-1.38.54-.33.14-.7.45-.99.39-2.42-.55-4.85-1.09-7.21-1.83-.66-.21-1.12-1.07-1.77-1.73-.05.29-.11.65-.19,1.12-.33-.02-.67-.03-1.01-.05-.07-.11-.14-.21-.21-.32.31-.12.63-.25.94-.37-.09-.15-.19-.3-.28-.45-.39.15-.87.2-1.14.47-.71.72-2.29.48-2.82-.43-.17-.3-.59-.47-.89-.69-.11.31-.23.62-.44,1.19-.53-.09-1.22-.21-1.9-.34-.08-.01-.17-.12-.21-.1-1.45.73-2.22-.19-2.97-1.2-.12-.16-.45-.23-.68-.24-1.12-.03-2.19-.02-3.25-.66-.59-.36-1.45-.29-1.97.65-.48.87-2.91.58-3.53-.19-.28-.35-.88-.44-1.33-.64-.07.1-.13.19-.2.29.07.12.14.23.2.35.06.1.1.21.16.31l-.19.31c-.94-.6-1.87-1.2-2.81-1.8-.07.06-.14.12-.22.17.15.21.3.41.67.92-2.8-.12-5.36.44-7.59-1.01-.35.33-.68.86-.95.84-.43-.04-.84-.44-1.25-.7-.52-.33-1.04-.67-1.81-1.18.05.72.08,1.09.12,1.53-1.59.42-3.08-.18-4.63-.43-.94-.15-1.98.45-2.98.47-.76.01-1.55-.34-2.3-.59-.36-.12-.67-.41-1.01-.62-1.24-.75-2.22-.5-2.95.68-.17.28-.6.58-.89.56-1.43-.1-2.85-.32-4.27-.45-.34-.03-.82-.01-1.01.19-.89.97-1.96.85-3.07.64-.16-.03-.33-.08-.48-.06-1.53.28-3.08.52-4.59.87-2.05.47-4.06.62-6.06-.15-.22.92-1.32,1.73-2.29,1.57-.71-.12-1.22-.17-1.86.42-.5.46-1.41.48-2.14.68-1.53.42-3.08.76-4.59,1.24-1.73.56-3.42,1.25-5.14,1.86-.97.34-1.98.59-2.95.94-1.5.55-2.97,1.16-4.45,1.72-1,.38-2.01.74-3.03,1.06-.18.06-.45-.15-.63-.21-.24.28-.42.73-.73.83-2.21.75-4.22,1.85-6.19,3.1-2.5,1.58-5.14,2.96-7.62,4.56-1.83,1.18-3.49,2.63-5.27,3.89-2.01,1.41-4.06,2.76-6.13,4.09-.25.16-.69.02-1.05.03-.42.02-.84.06-1.25.09l.03.43Zm104.78-38.35c0-.1,0-.19,0-.29h-3.14c0,.1,0,.19-.01.29h3.15Zm-4.08,7.52c-.3-.8-.4-1.25-.64-1.61-.13-.2-.49-.25-.74-.37-.09.31-.35.79-.24.89.39.38.9.63,1.62,1.09Z"/><path class="cls-1" d="m321.03,192.86c1.14-.67,1.74-.1,2.25.81.21.37.52.74.88.97,1.74,1.1,2,1.91.47,3.17-2.33,1.92-4.32,4.28-7.25,5.48-1.72.71-3.18,2.03-4.82,2.97-1.1.63-2.31,1.06-3.45,1.63-.56.29-1.02.78-1.6,1.04-2.68,1.2-5.38,2.35-8.07,3.52-.92.4-1.87.74-2.74,1.23-.71.41-1.31.61-2.01.04-.1-.08-.5.03-.62.17-.86,1-2.04,1.41-3.21,1.88-2.69,1.09-5.38,2.29-8.07,3.28-2.89,1.05-5.61,2.55-8.66,3.27-2.74.64-5.37,1.77-8.06,2.66-1.93.63-3.86,1.24-5.81,1.8-1.33.38-2.67.71-4.03.97-.35.07-.76-.22-1.12-.34-1.38.23-2.16,1.62-3.86,1.73-1.46.09-3.08.23-4.48,1.18-.82.55-1.98.68-3.01.8-2.79.34-5.46,1.15-8.31,1.38-3.17.26-6.31.12-9.46.26-1.44.06-2.88.33-4.32.39-.9.03-1.81-.21-2.72-.25-1-.05-2-.01-3.08-.01.08-.24.17-.51.26-.79-.11-.04-.23-.1-.24-.08-.57.74-1.33.62-2.12.54-.93-.09-1.88.02-2.8-.1-.69-.09-1.73-.21-1.96-.66-1.15-2.18-3.07-1.74-5.02-1.79.1.4.17.68.32,1.29-1.16-.25-2.16-.5-3.18-.67-.68-.11-1.39-.17-2.08-.13-1.1.06-1.78-.4-2.1-1.42-1.04,1.03-2.03.18-3.13.04.11-.37.2-.64.35-1.12-.47.09-.98.1-1.01.21-.41,1.87-1.71.79-2.62.76-.74-.02-1.48-.33-2.22-.5-1.41-.33-2.82-.65-4.22-.99-2.22-.53-4.44-1.03-6.64-1.6-2.14-.55-4.25-1.21-6.39-1.75-1.35-.34-2.74-.53-4.1-.83-.59-.13-1.16-.38-1.73-.57-2.42-.83-4.82-1.71-7.26-2.46-1.25-.38-2.59-.49-3.87-.8-.82-.2-1.65-.45-2.38-.85-.32-.18-.38-.81-.67-1.48-.05,0-.39-.02-.81-.05.08.41.13.7.26,1.38-1.02-.39-1.78-.68-2.54-.97.02-.12.05-.23.07-.35.41-.1.81-.2,1.22-.29l.03-.29c-.34-.04-.79-.24-.99-.1-1.34.98-2.66.32-3.79-.23-.82-.4-1.63-.74-2.49-1.05-1.82-.66-3.63-1.34-5.41-2.09-.87-.37-1.6-1.05-2.48-1.4-1.6-.63-3.27-1.06-4.87-1.7-.87-.35-1.62-1-2.46-1.44-1.12-.58-2.24-1.16-3.42-1.57-.86-.31-1.24-.77-1.11-1.69-.3-.02-.54-.06-.78-.06-1.7.04-1.65.04-1.58-1.66.03-.72-.2-1.46-.26-1.87,1.09-.54,1.88-.88,2.61-1.32,1.19-.73-.57-1.48,0-2.3.89.38,1.39.12,1.75-.88.14-.38,1.17-.76,1.66-.63,1.08.3,2.07.94,3.12,1.4,1.17.52,2.36,1.02,3.55,1.49,1,.39,2.01.76,3.04,1.06,1.03.3,2.13.37,3.11.76,1.66.65,3.2,1.66,4.89,2.19,2.27.71,4.64,1.07,6.95,1.66,1.35.35,2.66.87,4.01,1.26.47.14.98.13,1.41.34.87.26,1.73.52,2.6.76.16.04.37-.01.48.08,1.55,1.25,3.57,1.1,5.31,1.77,1.8.69,3.67,1.21,5.63,1.84-.02.47-.14,1.35,1.02.47.29-.22.8-.3,1.16-.23,1.32.28,2.61.67,3.92.99.5.12,1.02.13,1.51.26,2.7.76,5.38,1.56,8.09,2.29.77.21,1.59.22,2.39.31,2.26.27,4.57.31,6.76.86,2.35.6,4.71.87,7.08,1.21,1.71.25,3.38.72,5.08,1.01,1.12.19,2.27.27,3.41.34,1.59.1,3.18.13,4.77.19,1.53.06,1.88-.47,1.38-1.94-.12-.36,0-.81.04-1.21.06-.48.23-.95.23-1.42-.01-1.19-.04-1.19,1.08-1.7-.43-.67-.87-1.32-1.28-2-.14-.24-.35-.58-.28-.78.56-1.53.11-3.11.21-4.65.1-1.61-.06-3.23-.04-4.85,0-.72.18-1.43.3-2.14.07-.39.24-.78.26-1.17.08-2.17.11-4.34.18-6.51.07-2.27.05-4.55.28-6.8.12-1.15.67-2.27,1.09-3.38.45-1.19.96-2.35,1.49-3.63-1.31-.05-1.63-.51-1.35-1.4.41-1.26.8-2.53,1.2-3.8.26-.82.46-1.65.79-2.44.25-.61.55-1.13.07-1.8-.15-.21.04-.78.23-1.07.32-.47.78-.85,1.15-1.24.4-.12.89-.2,1.3-.42,1.31-.71,2.18-.09,2.66,1.23.71,1.94,1.2,3.83,1.05,5.9-.01.19.3.38.36.6.27.87.7,1.76.72,2.64.05,2.71-.04,5.42-.13,8.12-.02.48-.29.96-.47,1.49.12.38.41.89.41,1.41.02,2.21-.44,4.51,0,6.63.9,4.34.14,8.64.24,12.96.09,3.69-.11,7.39-.16,11.08-.03,2.02.28,2.46,2.27,2.35,2.16-.12,4.3-.58,6.45-.9,1.06-.16,2.12-.31,3.17-.54.92-.2,1.8-.57,2.72-.72,1.55-.26,3.12-.4,4.67-.63.81-.12,1.71-.17,2.4-.55,1.12-.61,2.21-.61,3.39-.42.27.04.58-.21.88-.29.41-.11.83-.2,1.25-.27.28-.04.69.08.82-.07,1.28-1.44,3.2-.88,4.73-1.56,1.56-.7,3.25-1.09,4.89-1.59.84-.25,1.71-.64,2.56-.62,1.72.05,3.25-.33,4.77-1.14,1.18-.63,2.52-.99,3.8-1.41,1.1-.36,2.25-.58,3.35-.95,1.47-.49,2.92-1.06,4.38-1.61,1-.38,1.98-.81,2.96-1.22,2.77-1.13,5.49-2.46,8.34-3.32,2.96-.88,5.44-2.56,8.1-3.97,1.81-.96,3.63-1.91,5.4-2.94,2.37-1.38,4.71-2.82,7.04-4.27,2.2-1.36,4.43-.24,4.62,2.35.01.16.03.31.05.56Zm-154.54,25.6c-.37.68-1.65.44-1.44,1.49.82.12,1.5.22,2.28.34-.31-.66-.55-1.18-.84-1.83Zm142.97-22.51c.07.19.15.38.22.56l1.46-.46c-.1-.24-.2-.47-.29-.71-.46.2-.92.4-1.39.61Z"/></svg>