<?xml version="1.0" encoding="UTF-8"?><svg id="Layer_1" xmlns="http://www.w3.org/2000/svg" viewBox="0 0 321.74 169.57">
<defs>
      <linearGradient id="logo-gradient" x1="0%" y1="0%" x2="100%" y2="0%">
        <!--Use two colors and alternate them as shown below-->
        <stop offset="0%" stop-color="color-1">
          <animate attributeName="stop-color" values="#442456;  #442456; #FF9A84; #FF9A84;" dur="4s" repeatCount="indefinite"></animate>
        </stop>
        <stop offset="25%" stop-color="color-2">
          <animate attributeName="stop-color" values="#FF9A84; #442456; #442456; #FF9A84" dur="2s" repeatCount="indefinite"></animate>
        </stop>
        <stop offset="50%" stop-color="color-2">
          <animate attributeName="stop-color" values="#FF9A84; #FF9A84; #442456; #442456" dur="6s" repeatCount="indefinite"></animate>
        </stop>
        <stop offset="75%" stop-color="color-3">
       <animate attributeName="stop-color" values="#FF9A84; #442456; #442456; #FF9A84" dur="2s" repeatCount="indefinite"></animate>
        </stop>
        <stop offset="100%" stop-color="color-4">
          <animate attributeName="stop-color" values="#442456;  #442456; #FF9A84; #FF9A84;" dur="4s" repeatCount="indefinite"></animate>
        </stop>

      </linearGradient>
    </defs>
    <g fill="url('#logo-gradient')">
  <path class="cls-2" d="m79.72,101.43c.24.11.47.22.98.46-.61.62-1.12,1.21-1.71,1.7-.58.48-1.26.83-1.87,1.28-.76.58-1.42,1.14-2.5,1.26-.78.09-1.61.89-2.18,1.57-1.43,1.73-3.09,3.13-4.85,4.53-1.53,1.22-3.39,2.1-4.53,3.91-1.04,1.66-2.92,2.37-4.74,3.02-.52.19-1.28.66-1.32,1.06-.18,1.94-1.64,2.32-3.06,2.85-.5.18-1.12.37-1.39.77-1.35,1.97-3.34,1.52-4.91.49-1.67-1.11-3.28-2.35-4.8-3.66-.43-.37-.45-1.22-.63-1.76-.13.16-.36.68-.61.69-.36.01-.8-.28-1.1-.56-1.45-1.34-2.84-2.73-4.3-4.06-.45-.41-1.02-.69-1.56-.98-1.31-.72-2.42-1.64-3.3-2.87-.35-.49-1.02-.75-1.54-1.12-.82-.58-1.63-1.16-2.44-1.74-.06-.04-.16-.06-.2-.11-2.02-2.48-4.84-4.09-6.93-6.53-1.51-1.77-3.54-3.09-5.28-4.67-.53-.48-.88-1.14-1.31-1.72-.13-.18-.2-.46-.37-.54-1.25-.62-1.83-1.8-2.64-2.83-1.1-1.4-2.6-2.47-3.78-3.82-1.33-1.53-2.49-3.21-3.72-4.83-.62-.83-1.28-1.63-1.83-2.51-.47-.75-.83-1.58-1.18-2.39-.29-.67-.16-1.18.71-1.14.75.03,1.45.16,1.65-.92.06-.29.72-.5,1.14-.68.38-.17.8-.25,1.26-.38,1.73,1.47,3.48,3.06,5.33,4.5,1.21.94,2.58,1.68,3.87,2.51.22.14.45.28.66.44,1.26.97,2.53,1.94,3.78,2.94.93.74,1.83,1.53,2.76,2.27,1.7,1.36,3.43,2.69,5.12,4.07,1.39,1.13,2.72,2.33,4.12,3.44,1.05.83,2.17,1.56,3.26,2.33.57.4,1.25.58,1.3,1.55.03.64,2.72,1.57,3.38,1.33,1.27-.45,2.08-.05,2.55,1.36,1.04-.98,1.78,0,2.59.41.88.45,1.72.99,2.5,1.59.57.44.96,1.12,1.51,1.58.69.58,1.41,1.19,2.22,1.53,1.14.47,1.69,1.01,1.6,1.93.86.29,1.67.55,2.65.88-.48-1.07,0-1.43.81-1.67.38-.11.74-.41,1.01-.71,1.05-1.13,2.06-2.29,3.1-3.43,1.16-1.27,2.33-2.55,3.52-3.79.39-.41.88-.72,1.52-1.23-.11.61-.17.95-.23,1.29.07.04.15.09.22.13.26-.34.69-.66.74-1.02.2-1.68,1.61-2.43,2.73-3.11.67-.4,1.11-1.1,1.92-1.38.59-.2.96-.98,1.51-1.41.23-.19.65-.2.98-.2.94,0,1.66-.15,1.69-1.35,0-.25.5-.68.79-.7.91-.07,1.44-.2,1.85-1.29.31-.83,1.54-1.35,2.42-1.93.75-.49,1.58-.88,2.38-1.29,1.37-.7,2.77-1.35,4.11-2.11.59-.34,1.02-.97,1.61-1.31,2.29-1.34,4.59-2.67,6.94-3.91,2.23-1.17,4.5-2.26,6.79-3.3,1-.46,2.14-.61,3.16-1.05,1.37-.6,2.64-1.42,4.01-2.02,1.04-.46,2.16-.72,3.23-1.09,1.11-.38,2.21-.8,3.32-1.16.6-.2,1.24-.3,1.84-.5,2.55-.82,5.08-1.73,7.66-2.47,1.2-.35,2.51-.35,3.75-.56.66-.11,1.29-.38,1.95-.52,1.38-.29,2.76-.66,4.15-.76,1.54-.12,3.15-.59,4.64.38.18.12.83-.05.86-.18.19-.83.81-.61,1.36-.75,3.2-.8,6.45.1,9.61-.3,4.2-.53,8.36.02,12.53-.08.18,0,.35-.08.82-.18-.47-.27-.7-.43-.95-.53-.59-.24-.84-.6-.96-1.29-.24-1.41-.72-2.78-1.1-4.17-.14-.5-.28-1.01-.37-1.52-.13-.78-.23-1.57-.31-2.36-.03-.34-.09-.76.07-1.01.85-1.39.06-2.73,0-4.1-.06-1.67.06-3.35.1-5.02.07-2.82.2-5.64.19-8.47,0-1.61.02-3.3-.42-4.82-.43-1.49-.45-2.94-.27-4.36.39-3.25-.77-6.4-.42-9.64.2-1.89.2-3.81.29-5.72.08-1.75.04-3.52.28-5.25.19-1.35.05-2.94,1.51-3.81.35-.21.78-.31,1.14-.45.92-.8,1.86-1.63,2.71-2.37.38.19.51.23.51.26.1,1.7,1.85,1.74,2.69,2.68.19.21.29.49.41.75.04.09-.05.26,0,.31.86.76,1.67,1.6,2.61,2.25,1.32.89,2.82,1.39,2.62,3.58-.14,1.44.51,2.95.79,4.44.06.34.08.7.08,1.04-.05,2.24.31,4.41.84,6.58.32,1.31.32,2.7.52,4.05.15,1.02.39,2.02.6,3.03.09.45.22.89.28,1.34.32,2.2.62,4.41.93,6.61.02.15.04.31.05.47.13,2.03.31,4.06.38,6.09.12,3.72.21,7.44.25,11.16.01,1.4-.05,2.81-.25,4.19-.27,1.82-.71,3.62-1.14,5.75,1.36.02,2.71-.06,4.03.1,1.26.16,2.49.58,3.73.89.18.05.32.23.5.26,1.28.27,2.55.56,3.84.75,2.01.31,4.04.47,6.03.85.71.13,1.35.7,2.09,1.12.47-.67,1.32-.55,2.23-.3.7.19,1.41.35,2.13.47.62.11,1.37-.13,1.6.81.03.11.5.12.78.16.45.06.91.04,1.34.16,1.38.39,2.76,1.14,4.13,1.12.79-.01,1.41.27,2.1.31,1.28.08,2.39.99,3.43,1,1.55.01,2.72.87,4.12,1.09,1.06.17,2.05.71,3.1,1.03.94.29,1.9.54,2.87.76,1.21.29,2.45.48,3.65.81,1.11.31,2.18.76,3.28,1.11.91.29,1.82.62,2.76.77,1.84.31,3.38,1.23,4.95,2.15,1.01.59,2.12,1.02,3.12,1.63.34.21.44.77.71,1.12.41.52.87.99,1.31,1.49.11-.05.22-.11.33-.16-.03-.37-.06-.74-.11-1.33,1.25.57,2.42,1.05,3.55,1.63,1.36.7,2.68,1.47,4.01,2.21.14.08.27.15.4.24,1.69,1.16,3.35,2.38,5.08,3.48,1.32.84,2.76,1.51,4.11,2.33,1.64,1,3.24,2.09,4.86,3.13,1.38.88,2.77,1.75,3.88,2.46,1.06.79,1.86,1.47,2.73,2.01.84.53,1.76.9,2.63,1.38.9.5,1.56.3,2.2-.52,1.08-1.38,2.23-2.69,3.34-4.04.47-.56.86-1.21,1.38-1.7.91-.86,1.98-1.56,2.84-2.46,1.27-1.34,2.41-2.8,3.62-4.19.41-.47.91-.85,1.29-1.33.38-.49.61-1.1.99-1.58.32-.4.78-.67,1.17-1.02.92-.83,1.85-1.63,2.72-2.51.33-.34.48-.85.66-1.19,2.05-1.95,4.14-3.84,6.11-5.85,1.46-1.49,2.57-3.37,4.17-4.65,1.86-1.49,2.89-3.68,4.76-5.09,1.16-.88,2.41-1.65,3.68-2.38.3-.17.79-.01,1.2,0,.06.1.12.2.18.3-.28.11-.56.22-.9.35.97.69,2.09.55,2.67,1.68.42.83,1.94.92,1.78,2.28,1.9.24,1.71.21,1.16,2.16-.41,1.44-.63,2.9-1.41,4.23-.59,1.01-1.04,2.1-1.49,3.18-1.02,2.43-2.93,4.22-4.4,6.32-.62.88-1.02,1.9-1.53,2.86-.04.07-.06.15-.11.21-2.15,2.82-4.29,5.66-6.47,8.46-.78,1-1.71,1.88-2.47,2.89-.66.88-1.14,1.9-1.76,2.82-.38.57-.87,1.07-1.29,1.61-.18.23-.31.5-.42.78-.1.25-.04.66-.19.76-1.14.7-1.73,1.85-2.46,2.89-.75,1.07-1.3,2.38-2.28,3.18-.92.75-.87,2.12-2.3,2.64-.94.34-1.42,1.95-2.08,3.01-.05.08.13.31.12.29-.84.66-1.59,1.23-2.33,1.81-1.42.39-3.03-.47-4.4.76-.51.46-1.39.51-2.19.79-.53-.34-.92-.74-.16-1.2-.64-.53-1.28-1.05-1.9-1.59-.72-.63-1.18-1.68-2.45-1.42-.24.05-.57-.23-.82-.41-1.52-1.19-2.99-2.45-4.56-3.58-1.27-.91-2.67-1.64-3.98-2.51-.26-.17-.56-.7-.47-.9.51-1.21.53-1.23-.79-1.2-.23,0-.45,0-.67-.01,0,.35.08.69-.05.88-.08.12-.53.11-.74,0-.92-.44-1.82-.94-2.78-1.45.18-.15.4-.33.62-.51q-.83-.9-1.1-.05c-1.64-.69-3.76-.71-4.18-2.91-.73-.53-1.41-1.03-2.29-1.67-.19.09-.69.53-1.11.47-.79-.11-1.53-.53-2.29-.81-.86-.31-1.21-.86-1.14-1.81.03-.42-.35-.87-.54-1.3-.17.03-.34.06-.5.09.04.62.09,1.24.13,1.84-2.92-1.17-5.97-2.38-8.98-3.58-.07-.51-.13-.97-.22-1.65-1.49,1.16-2.65.33-3.76-.26-1.03-.55-2.4-.96-1.95-2.79-.41,1.09-.7,1.34-1.73.75-1.55-.88-3.3-1.4-4.94-2.14-.88-.39-1.7-.92-2.86-1.56-.61.25-1.39.31-1.78-1.14-.13-.47-1.39-.7-2.18-.87-.44-.1-.96.16-1.45.25.02-1.5-.17-1.67-1.93-1.29.55.22.85.35,1.15.47-.09.16-.17.33-.26.49-.73-.19-1.46-.38-2.18-.58-.84-.24-1.67-.51-2.51-.75-.96-.26-1.94-.45-2.87-.78-.32-.11-.51-.56-.77-.83-.29-.31-.58-.82-.9-.84-.42-.04-.88.31-1.33.49-.32.13-.67.42-.94.35-2.29-.56-4.59-1.11-6.83-1.86-.63-.21-1.05-1.04-1.65-1.67-.05.27-.12.62-.2,1.06-.31-.02-.64-.04-.96-.06-.06-.1-.13-.2-.19-.3.3-.11.6-.23.9-.34-.09-.14-.17-.29-.26-.43-.37.14-.83.18-1.09.43-.69.67-2.19.42-2.67-.46-.16-.29-.55-.45-.83-.67-.11.29-.23.59-.43,1.12-.5-.1-1.15-.22-1.8-.35-.07-.01-.16-.12-.2-.1-1.39.67-2.1-.22-2.81-1.19-.11-.16-.42-.23-.64-.24-1.07-.04-2.08-.06-3.08-.68-.56-.35-1.37-.3-1.88.59-.47.82-2.78.51-3.36-.24-.26-.34-.83-.43-1.26-.63-.06.09-.13.18-.19.27.06.11.13.22.19.34.05.1.1.2.14.3l-.18.29c-.88-.59-1.76-1.17-2.64-1.76-.07.05-.14.11-.21.16.14.2.28.4.63.89-2.67-.16-5.1.33-7.2-1.08-.34.31-.66.81-.92.78-.41-.04-.79-.43-1.17-.69-.49-.32-.98-.66-1.7-1.15.04.68.06,1.04.08,1.46-1.52.37-2.93-.22-4.4-.48-.89-.16-1.89.4-2.84.39-.73,0-1.47-.34-2.17-.6-.34-.12-.63-.4-.95-.6-1.17-.73-2.1-.51-2.81.6-.17.26-.58.54-.85.52-1.36-.12-2.7-.35-4.06-.5-.32-.04-.78-.03-.97.17-.86.91-1.88.77-2.93.56-.15-.03-.31-.08-.46-.06-1.46.24-2.93.44-4.38.75-1.95.42-3.87.53-5.76-.24-.23.87-1.28,1.63-2.2,1.45-.68-.13-1.16-.18-1.77.37-.48.43-1.35.43-2.05.61-1.46.37-2.94.67-4.38,1.11-1.66.5-3.27,1.14-4.92,1.68-.93.31-1.89.52-2.82.84-1.43.49-2.84,1.05-4.26,1.56-.96.34-1.92.67-2.9.96-.17.05-.42-.15-.59-.21-.23.27-.42.68-.7.78-2.11.68-4.04,1.69-5.94,2.84-2.41,1.46-4.93,2.73-7.32,4.22-1.76,1.09-3.36,2.44-5.08,3.61-1.93,1.31-3.91,2.56-5.9,3.79-.24.15-.66,0-1,.01-.4.01-.8.04-1.19.07l.02.41Zm100.25-34.76c0-.09,0-.18.01-.27l-2.99-.05c0,.09,0,.18-.01.27l2.99.05Zm-4,7.09c-.27-.76-.36-1.19-.58-1.54-.12-.19-.46-.25-.7-.37-.09.29-.34.75-.24.85.36.36.84.61,1.52,1.06Z" />
  <path class="cls-2" d="m262.68,134.63c-.34-.22-.63-.58-.82-.93-.47-.87-1.03-1.43-2.13-.81-.02-.24-.03-.39-.04-.54-.14-2.46-2.24-3.57-4.36-2.31-2.24,1.34-4.49,2.67-6.76,3.94-1.7.95-3.44,1.82-5.18,2.71-2.55,1.29-4.94,2.85-7.76,3.64-2.73.76-5.33,1.99-7.99,3.02-.95.37-1.88.76-2.84,1.11-1.39.51-2.78,1.02-4.19,1.46-1.05.33-2.15.53-3.2.85-1.23.38-2.5.7-3.64,1.27-1.46.74-2.92,1.08-4.55,1.01-.8-.04-1.64.32-2.44.54-1.57.45-3.19.8-4.68,1.43-1.47.63-3.29.06-4.52,1.41-.13.14-.52.02-.78.06-.4.06-.8.14-1.19.23-.29.07-.58.3-.84.26-1.12-.19-2.16-.22-3.23.35-.67.35-1.52.38-2.29.48-1.48.19-2.98.29-4.45.52-.88.13-1.72.47-2.59.64-1,.2-2.01.32-3.02.46-2.05.27-4.09.67-6.15.75-.81.03-1.31-.04-1.63-.27-.36.1-.73.17-1.09.19-3.46.17-7.34.52-10.82-.3-.24.09-.57.12-.99.1-1.51-.08-3.03-.15-4.54-.26-1.08-.08-2.17-.18-3.24-.38-1.61-.3-3.19-.79-4.81-1.05-2.25-.36-4.49-.66-6.71-1.27-2.07-.56-4.27-.64-6.41-.93-.76-.1-1.54-.13-2.27-.34-2.56-.74-5.1-1.55-7.65-2.31-.46-.14-.96-.15-1.43-.28-1.24-.33-2.46-.71-3.71-1-.34-.08-.83,0-1.11.2-1.12.82-.98-.01-.96-.46-1.85-.63-3.62-1.16-5.32-1.85-1.65-.66-3.57-.55-5.02-1.77-.1-.09-.31-.04-.46-.08-.82-.25-1.64-.51-2.46-.77-.41-.21-.89-.21-1.34-.35-1.27-.39-2.51-.91-3.79-1.26-2.19-.6-4.44-.98-6.58-1.7-1.6-.53-3.05-1.51-4.62-2.16-.93-.38-1.98-.47-2.95-.77-.98-.3-1.93-.67-2.88-1.06-1.13-.46-2.25-.96-3.35-1.48-.98-.46-1.91-1.08-2.94-1.39-.46-.13-1.45.21-1.59.57-.36.94-.85,1.18-1.68.81-.56.78,1.1,1.51-.04,2.19-.7.41-1.46.72-2.5,1.22.05.39.26,1.1.22,1.78-.09,1.62-.14,1.61,1.48,1.6.23,0,.46.04.74.07-.14.87.21,1.32,1.03,1.63,1.11.42,2.18.99,3.23,1.55.8.43,1.49,1.06,2.32,1.41,1.5.63,3.09,1.06,4.6,1.69.82.34,1.51,1,2.33,1.37,1.68.75,3.39,1.43,5.11,2.08.81.31,1.58.65,2.35,1.04,1.07.54,2.31,1.19,3.6.28.19-.14.62.06.94.11l-.03.28c-.39.09-.78.17-1.17.26-.02.11-.05.22-.07.33.72.29,1.44.58,2.4.96-.11-.65-.16-.92-.22-1.31.4.03.72.06.77.06.26.64.31,1.24.61,1.42.68.4,1.47.65,2.24.85,1.21.32,2.48.44,3.67.82,2.31.75,4.58,1.63,6.87,2.45.54.2,1.08.44,1.64.57,1.29.31,2.61.51,3.89.85,2.03.55,4.02,1.21,6.04,1.77,2.09.58,4.19,1.1,6.29,1.63,1.33.34,2.67.67,4,1.01.7.18,1.4.48,2.1.51.86.04,2.08,1.09,2.5-.68.03-.11.52-.11.96-.18-.15.46-.23.71-.35,1.06,1.05.15,1.97.98,2.98.02.28.98.93,1.42,1.97,1.39.66-.02,1.32.04,1.97.16.96.18,1.91.43,3.01.69-.14-.59-.2-.86-.29-1.24,1.86.08,3.69-.31,4.75,1.79.22.43,1.2.57,1.86.66.87.13,1.78.04,2.66.14.75.09,1.47.21,2.02-.48.01-.02.12.04.23.08-.09.26-.18.52-.26.75,1.03.02,1.98,0,2.93.06.86.06,1.72.3,2.58.28,1.37-.03,2.74-.26,4.12-.3,3-.07,5.98.1,9-.09,2.71-.17,5.27-.9,7.92-1.18.98-.1,2.09-.2,2.88-.72,1.35-.88,2.89-.99,4.28-1.05,1.62-.07,2.39-1.39,3.7-1.58.34.12.73.4,1.06.34,1.29-.22,2.58-.52,3.84-.86,1.86-.5,3.71-1.05,5.56-1.62,2.57-.8,5.09-1.83,7.71-2.4,2.9-.63,5.52-2.01,8.28-2.97,2.58-.89,5.15-1.99,7.73-2.98,1.12-.43,2.25-.8,3.08-1.74.12-.13.5-.23.59-.15.66.56,1.23.37,1.92,0,.83-.45,1.74-.76,2.62-1.12,2.58-1.07,5.16-2.12,7.73-3.22.55-.23,1-.7,1.54-.96,1.09-.53,2.25-.91,3.3-1.49,1.57-.87,2.98-2.1,4.63-2.74,2.81-1.1,4.74-3.3,6.99-5.09,1.47-1.17,1.23-1.95-.4-3.02Zm-151.7,21.47c-.18-1,1.03-.75,1.39-1.39.27.61.49,1.11.77,1.75-.74-.12-1.38-.23-2.16-.36Zm137.9-19.92c-.07-.18-.13-.36-.2-.54.44-.18.89-.37,1.33-.55.09.23.18.45.27.68-.46.14-.93.27-1.39.41Z" />
  <path class="cls-d" d="m164.65,157.43c-.69-1.75-2.17-2.01-1.91-4.02-.26-.89-.09-1.92-.04-2.83,1.03-.58-.15-1.17.7-1.8l-.64-.11c.29-.21.47-.44.12-.57l-.18.03c.43-.32.12-.57.34-.73l-.18.03.04-.32-.25.09c.44-.51.42-.97.14-1.36l.75-.05c-.93-.78.58-1.26-.49-1.94l-.18.03c1.88-1.19-1.51-1.45.29-2.65-.22.15-.39-.02-.57,0,.17-.49.24-1.01,1.72-1.13-.05-.34-.48-.24-1.06-.24.65-.05.89-.37.91-.64l-.24.14.16-.78,1.23.06c-.38-.38-1.5,0-1.23-.4l1.01-.07c-.24-.54-1.79-.77-2.57-1.27-.57-2.27,1.92-4.8.09-6.86l-.77-.08c-1.12-.02,1.64-.61.61-.68l.51-.25c-.2-.07-.41-.21-.66-.08-.05-.23.14-.24.47-.4l-.7-.24c-.55-.9.79-1.67.52-2.61-1.41-1.15-.07-3.29.73-4.48,1.72-1.64-2.61-3.88-.59-5.55-.15-.07.21-.19.34-.18l-.04-1.63s.05-1.98,1.22-3.08c1.17-1.13,3.39-1.27,7.72,1.99l.24-.02c.51.89.6,1.42-.67,1.9,1.49.21.1.7.57.93h.12c-1.19.42.88,1.11-.18,1.53.12-.01.53,0,.56-.11-.21.35-.57.82.3.89-.28.84.07,2.05-1.34,2.54l.24-.03c-.95.28-.15.4-.65.73.11.02.17.05.22.05-.94.31-.18,1-.58,1.26l.58.03-.15.68-.12-.26c-1.6.05.99.54-.05,1.01.19.46-3.32.9-2.55,1.4-.75.23,1.21-.19.64.15.83.02.52-.16,1.18-.06-.4.34.84.56.28.97l.65.02c-1.18.54.85,1.02-.27,1.38-.53.57,1.92.36.66.95l.88.21c.14.24-1.07.19-.64.46.55-.03.45.34.97.17.87.6-1.2,1.29.28,2.06-1.07.21-.42.6-1.22.76.47,0,.11.82,1.1.32.08-.04.06-.11-.12-.1l.63-.08c1.22.41-.63.87-.42,1.32-.22-.13-.17-.31-.6-.17l.11.42.53-.11.34.62-.67-.05c.36.3,1.49.34.56.74-.52.19-.91-.25-1.1.09.47.39,1.19.97,1.42,1.49-.75,0-.71.14-.85.3l.65-.03c-.86.62,1.43.11.76.71l.45-.08-1.34.24c-1.24.6,1.36.17-.35.86.09-.23-1.43,0-1.13.26l.62-.12c-.12.16-.38.23-.24.32.33-.12.9-.12.81.11l.77-.21-1.11.51c.7.27-.1.85.79.91,0,0,.49.65-.45.9.58-.2.85.16,1.54-.01-.66.24-1.16.83-.42.97l.08-.05c.81.7-.86,1.45.11,2.05-.75.05-.3.38-1.27.4-.85.85,2.1,1.09-.81,1.73-.12.36.74.31.92.46l.14-.1c-.16.65-.16.84-.03,1.29-.25.27-1.61.5-1.22.87.52-.21.45-.03.47.13.07-.11.27-.17.66-.02-.16.05-.26.11-.34.17.04,0,.08,0,.13-.01-.15.29-.33.27-.42.16-.08.02-.19.02-.35,0,.74.17.06.76,1,.65-.09.81-.97,1.52-1.22,2.23.49,0,.89-.23,1.04-.44l-.1.49c.69-.12.35-.33.47-.49,1.2.36-.93,1.31.21,1.78l-.52.23.1.02c-.29.05-.65.26-.73.37.61-.01,1.38-.25,1.4.07.62.15-.16.76-.42,1.15-.13-.16-.45-.04-.65.07,0,.16.62.14.39.31l.81-.14c-.77.08-.74.57-1.06.69.61-.02.47-.34.91-.47.05.65.02.32.07.97-.54.46-.77.09-1.45.39-.1.33-.6.74-.05.99l-.73.03c-.44.68-.28,1.01.51,1.24-2.45,2.73-4.36,3.42-5.68,3.38-1.32-.04-2.04-.8-2.04-.8-1.94-1.42-.06-2.76.11-4.93Z" />
  </g>
</svg>